<svg width="135" height="135" viewBox="0 0 135 135" fill="none" xmlns="http://www.w3.org/2000/svg">
<rect x="0.5" y="0.5" width="134" height="134" rx="67" fill="#292929"/>
<rect x="0.5" y="0.5" width="134" height="134" rx="67" stroke="#F3F3F3"/>
<path d="M33.0391 61.5L32.2656 58.5566H27.1631L26.3682 61.5H21.7061L26.8301 45.7305H32.4912L37.6797 61.5H33.0391ZM31.3848 55.0762L30.708 52.498C30.6364 52.2188 30.5326 51.8213 30.3965 51.3057C30.2604 50.7829 30.1243 50.2458 29.9883 49.6943C29.8594 49.1357 29.7591 48.6774 29.6875 48.3193C29.623 48.6774 29.5299 49.1214 29.4082 49.6514C29.2936 50.1742 29.1719 50.6934 29.043 51.209C28.9212 51.7246 28.8138 52.1543 28.7207 52.498L28.0439 55.0762H31.3848ZM45.6934 52.3047H52.4717V60.7695C51.6624 61.0488 50.735 61.278 49.6895 61.457C48.6439 61.6289 47.5482 61.7148 46.4023 61.7148C44.8913 61.7148 43.5664 61.4212 42.4277 60.834C41.2891 60.2467 40.401 59.3551 39.7637 58.1592C39.1263 56.9561 38.8076 55.4378 38.8076 53.6045C38.8076 51.9574 39.1227 50.5358 39.7529 49.3398C40.3831 48.1367 41.3105 47.2093 42.5352 46.5576C43.7669 45.8988 45.2744 45.5693 47.0576 45.5693C48.0387 45.5693 48.9697 45.6624 49.8506 45.8486C50.7314 46.0348 51.4977 46.2712 52.1494 46.5576L50.8066 49.8877C50.2409 49.6084 49.6536 49.4007 49.0449 49.2646C48.4362 49.1214 47.7809 49.0498 47.0791 49.0498C46.141 49.0498 45.3854 49.2611 44.8125 49.6836C44.2467 50.1061 43.835 50.6719 43.5771 51.3809C43.3193 52.0827 43.1904 52.8597 43.1904 53.7119C43.1904 54.6859 43.3265 55.5094 43.5986 56.1826C43.8779 56.8486 44.2826 57.3571 44.8125 57.708C45.3496 58.0518 45.9977 58.2236 46.7568 58.2236C47.0075 58.2236 47.3118 58.2057 47.6699 58.1699C48.0352 58.1341 48.3109 58.0911 48.4971 58.041V55.5811H45.6934V52.3047ZM64.9971 61.5H55.6729V45.7949H64.9971V49.2002H59.916V51.6709H64.6211V55.0762H59.916V58.041H64.9971V61.5ZM82.7002 61.5H77.1357L71.3994 50.4355H71.3027C71.3385 50.7721 71.3708 51.1768 71.3994 51.6494C71.4281 52.1221 71.4531 52.6055 71.4746 53.0996C71.4961 53.5866 71.5068 54.027 71.5068 54.4209V61.5H67.7471V45.7949H73.29L79.0049 56.709H79.0693C79.0479 56.3652 79.0264 55.9678 79.0049 55.5166C78.9834 55.0583 78.9619 54.5964 78.9404 54.1309C78.9261 53.6654 78.9189 53.2536 78.9189 52.8955V45.7949H82.7002V61.5ZM93.0879 49.0498C92.5866 49.0498 92.139 49.1572 91.7451 49.3721C91.3512 49.5798 91.0146 49.8841 90.7354 50.2852C90.4561 50.6862 90.2412 51.1768 90.0908 51.7568C89.9476 52.3298 89.876 52.9814 89.876 53.7119C89.876 54.7002 90.0013 55.5309 90.252 56.2041C90.5026 56.8773 90.8822 57.3857 91.3906 57.7295C91.9062 58.0732 92.5508 58.2451 93.3242 58.2451C94.026 58.2451 94.6992 58.1484 95.3438 57.9551C95.9954 57.7617 96.6507 57.529 97.3096 57.2568V60.8447C96.6149 61.1527 95.9023 61.3747 95.1719 61.5107C94.4486 61.6468 93.6787 61.7148 92.8623 61.7148C91.1579 61.7148 89.7614 61.3783 88.6729 60.7051C87.5915 60.0247 86.793 59.083 86.2773 57.8799C85.7689 56.6768 85.5146 55.2803 85.5146 53.6904C85.5146 52.5016 85.6794 51.4131 86.0088 50.4248C86.3454 49.4365 86.8359 48.5807 87.4805 47.8574C88.125 47.127 88.9199 46.5648 89.8652 46.1709C90.8177 45.7699 91.9062 45.5693 93.1309 45.5693C93.89 45.5693 94.6885 45.6589 95.5264 45.8379C96.3714 46.0098 97.195 46.2891 97.9971 46.6758L96.6973 50.0166C96.1243 49.7445 95.5443 49.5153 94.957 49.3291C94.3698 49.1429 93.7467 49.0498 93.0879 49.0498ZM105.989 51.6172L108.696 45.7949H113.294L108.127 55.3662V61.5H103.852V55.4951L98.6846 45.7949H103.304L105.989 51.6172ZM36.1221 91.5L32.9102 80.1885H32.8135C32.8421 80.4821 32.8708 80.8796 32.8994 81.3809C32.9352 81.8822 32.9674 82.4229 32.9961 83.0029C33.0247 83.583 33.0391 84.1416 33.0391 84.6787V91.5H29.2793V75.7949H34.9297L38.2061 86.9453H38.292L41.5039 75.7949H47.165V91.5H43.2656V84.6143C43.2656 84.1201 43.2728 83.5902 43.2871 83.0244C43.3086 82.4515 43.3301 81.9144 43.3516 81.4131C43.3802 80.9046 43.4053 80.5036 43.4268 80.21H43.3301L40.1611 91.5H36.1221ZM65.2441 83.626C65.2441 84.8363 65.0973 85.9391 64.8037 86.9346C64.5173 87.9229 64.0661 88.7751 63.4502 89.4912C62.8343 90.2074 62.043 90.7588 61.0762 91.1455C60.1094 91.5251 58.9528 91.7148 57.6064 91.7148C56.2887 91.7148 55.1465 91.5251 54.1797 91.1455C53.2201 90.7588 52.4287 90.2109 51.8057 89.502C51.1826 88.7858 50.7207 87.93 50.4199 86.9346C50.1191 85.9391 49.9688 84.8291 49.9688 83.6045C49.9688 81.9717 50.2373 80.5537 50.7744 79.3506C51.3187 78.1403 52.1566 77.2057 53.2881 76.5469C54.4196 75.8809 55.8662 75.5479 57.6279 75.5479C59.4183 75.5479 60.8721 75.8809 61.9893 76.5469C63.1136 77.2129 63.9372 78.151 64.46 79.3613C64.9827 80.5716 65.2441 81.9932 65.2441 83.626ZM54.4375 83.626C54.4375 84.5713 54.5449 85.3841 54.7598 86.0645C54.9746 86.7448 55.3148 87.2676 55.7803 87.6328C56.2458 87.998 56.8545 88.1807 57.6064 88.1807C58.387 88.1807 59.0065 87.998 59.4648 87.6328C59.9303 87.2676 60.2633 86.7448 60.4639 86.0645C60.6715 85.3841 60.7754 84.5713 60.7754 83.626C60.7754 82.208 60.5391 81.0872 60.0664 80.2637C59.5938 79.4401 58.7809 79.0283 57.6279 79.0283C56.8617 79.0283 56.2422 79.2145 55.7695 79.5869C55.304 79.9593 54.9639 80.4893 54.749 81.1768C54.5413 81.8643 54.4375 82.6807 54.4375 83.626ZM81.4111 83.3145C81.4111 85.1406 81.071 86.6589 80.3906 87.8691C79.7103 89.0794 78.7507 89.9889 77.5117 90.5977C76.2799 91.1992 74.8298 91.5 73.1611 91.5H68.0801V75.7949H73.5156C75.2057 75.7949 76.638 76.085 77.8125 76.665C78.987 77.2451 79.8786 78.0938 80.4873 79.2109C81.1032 80.3281 81.4111 81.696 81.4111 83.3145ZM77.0068 83.4648C77.0068 82.5124 76.8779 81.7246 76.6201 81.1016C76.3695 80.4714 75.9899 80.0023 75.4814 79.6943C74.973 79.3792 74.332 79.2217 73.5586 79.2217H72.3232V88.0195H73.2686C74.5576 88.0195 75.5029 87.6471 76.1045 86.9023C76.7061 86.1504 77.0068 85.0046 77.0068 83.4648ZM93.5605 91.5H84.2363V75.7949H93.5605V79.2002H88.4795V81.6709H93.1846V85.0762H88.4795V88.041H93.5605V91.5ZM96.3105 91.5V75.7949H100.554V88.0732H106.602V91.5H96.3105Z" fill="#F3F3F3"/>
</svg>
