<svg width="92" height="91" viewBox="0 0 92 91" fill="none" xmlns="http://www.w3.org/2000/svg">
<rect x="0.5" y="0.5" width="91" height="90" rx="45" fill="#292929"/>
<rect x="0.5" y="0.5" width="91" height="90" rx="45" stroke="white"/>
<path fill-rule="evenodd" clip-rule="evenodd" d="M38.0612 58.3843C38.029 58.166 37.9781 57.9506 37.9089 57.7403H52.4383L55.7252 62.8327C57.3635 65.423 60.8591 66.227 63.5576 64.7909C66.2393 63.3608 67.3078 60.1505 65.8428 57.5162C68.1906 56.8602 70 54.834 70 52.2818C70 49.1615 67.2911 46.8233 64.2045 46.8233H59.1165L53.8595 38.8905L53.8073 38.8125C53.3971 38.226 52.8115 37.7721 52.1273 37.5104L54.4939 33.7301C56.1697 31.0538 55.1221 27.6835 52.3527 26.2094C51.3661 25.6847 50.243 25.4429 49.117 25.5128C47.9911 25.5826 46.9099 25.9612 46.0021 26.6034C45.0934 25.9618 44.012 25.5831 42.8858 25.5122C41.7595 25.4413 40.6357 25.6811 39.6473 26.2034C36.8779 27.6795 35.8303 31.0498 37.5061 33.7281L39.2737 36.5503L32.8438 46.8233H27.7934C24.711 46.8233 22 49.1595 22 52.2838C22 54.834 23.8115 56.8622 26.1593 57.5162C24.6922 60.1525 25.7586 63.3648 28.4424 64.7949C31.1242 66.221 34.599 65.435 36.2477 62.8787L37.2494 61.4226C37.7959 60.6511 38.0895 59.7408 38.0925 58.8084C38.0925 58.7904 38.0925 58.7984 38.0904 58.8064L38.0821 58.7063C38.0781 58.5988 38.0712 58.4915 38.0612 58.3843ZM33.6035 61.2726L34.6511 59.7464C34.9913 59.2804 34.9642 58.8144 34.9642 58.8144C34.7492 57.3962 31.792 57.1002 31.792 57.1002C30.5357 56.9902 29.9075 57.5742 29.6529 57.9103L28.9892 58.8144C28.8153 59.0942 28.7025 59.4048 28.6575 59.7276C28.6125 60.0504 28.6362 60.3786 28.7273 60.6923C28.8184 61.0061 28.975 61.2989 29.1875 61.5529C29.4 61.807 29.6641 62.0172 29.9638 62.1707C31.2369 62.8507 32.8668 62.4487 33.6035 61.2726ZM57.9186 49.8235H64.2045C65.6758 49.8235 66.8696 50.9236 66.8696 52.2798C66.8696 53.6379 65.6758 54.738 64.2045 54.738H61.0303C60.5503 54.738 60.6296 54.984 60.6755 55.074L63.0129 58.8084C63.7475 59.9845 63.3113 61.4886 62.0362 62.1667C60.7631 62.8447 59.1311 62.4407 58.3965 61.2666L50.1823 48.5454C49.6835 47.6313 48.2518 44.6091 49.5061 41.9508C49.5061 41.9508 50.5558 39.5646 51.2174 40.4967L57.2257 49.5655L57.2299 49.5735C57.303 49.6535 57.4908 49.7975 57.9186 49.8235ZM48.1078 54.74C49.4059 54.74 49.0678 53.1658 49.0678 53.1658C48.5586 49.9375 44.8188 49.8255 44.8188 49.8255H41.2501C40.8953 49.7955 40.912 49.6295 40.9579 49.5255L51.8101 32.1879C51.984 31.9081 52.0968 31.5975 52.1418 31.2747C52.1868 30.9519 52.1631 30.6237 52.072 30.3099C51.9809 29.9962 51.8243 29.7034 51.6118 29.4493C51.3993 29.1953 51.1352 28.9851 50.8355 28.8316C49.5624 28.1516 47.9304 28.5556 47.1958 29.7317L46 31.6339L44.8042 29.7257C44.0696 28.5496 42.4397 28.1456 41.1645 28.8256C39.8915 29.5057 39.4532 31.0058 40.1899 32.1819L42.7652 36.2983C42.8098 36.3754 42.8332 36.4622 42.8332 36.5503C42.8332 36.6385 42.8098 36.7252 42.7652 36.8024L34.9663 49.2635L34.96 49.2595C34.96 49.2595 34.7304 49.7735 33.7663 49.8235H27.7955C26.3242 49.8235 25.1304 50.9236 25.1304 52.2838C25.1304 53.6399 26.3242 54.74 27.7955 54.74H48.1078Z" fill="white"/>
</svg>
