<svg width="73" height="73" viewBox="0 0 73 73" fill="none" xmlns="http://www.w3.org/2000/svg">
<rect x="0.5" y="0.5" width="72" height="72" rx="36" fill="#292929"/>
<rect x="0.5" y="0.5" width="72" height="72" rx="36" stroke="#F3F3F3"/>
<path d="M22.6904 33.5498C22.1891 33.5498 21.7415 33.6572 21.3477 33.8721C20.9538 34.0798 20.6172 34.3841 20.3379 34.7852C20.0586 35.1862 19.8438 35.6768 19.6934 36.2568C19.5501 36.8298 19.4785 37.4814 19.4785 38.2119C19.4785 39.2002 19.6038 40.0309 19.8545 40.7041C20.1051 41.3773 20.4847 41.8857 20.9932 42.2295C21.5088 42.5732 22.1533 42.7451 22.9268 42.7451C23.6286 42.7451 24.3018 42.6484 24.9463 42.4551C25.598 42.2617 26.2533 42.029 26.9121 41.7568V45.3447C26.2174 45.6527 25.5049 45.8747 24.7744 46.0107C24.0511 46.1468 23.2812 46.2148 22.4648 46.2148C20.7604 46.2148 19.3639 45.8783 18.2754 45.2051C17.194 44.5247 16.3955 43.583 15.8799 42.3799C15.3714 41.1768 15.1172 39.7803 15.1172 38.1904C15.1172 37.0016 15.2819 35.9131 15.6113 34.9248C15.9479 33.9365 16.4385 33.0807 17.083 32.3574C17.7275 31.627 18.5225 31.0648 19.4678 30.6709C20.4202 30.2699 21.5088 30.0693 22.7334 30.0693C23.4925 30.0693 24.291 30.1589 25.1289 30.3379C25.974 30.5098 26.7975 30.7891 27.5996 31.1758L26.2998 34.5166C25.7269 34.2445 25.1468 34.0153 24.5596 33.8291C23.9723 33.6429 23.3493 33.5498 22.6904 33.5498ZM35.4199 30.2949C37.4108 30.2949 38.9004 30.7282 39.8887 31.5947C40.8841 32.4613 41.3818 33.693 41.3818 35.29C41.3818 36.0062 41.278 36.6937 41.0703 37.3525C40.8698 38.0114 40.5368 38.5986 40.0713 39.1143C39.613 39.6299 39.0007 40.0381 38.2344 40.3389C37.4753 40.6396 36.5371 40.79 35.4199 40.79H34.2275V46H29.9844V30.2949H35.4199ZM35.3232 33.7217H34.2275V37.3311H35.0654C35.4307 37.3311 35.7708 37.2702 36.0859 37.1484C36.401 37.0195 36.6517 36.8154 36.8379 36.5361C37.0312 36.2497 37.1279 35.8701 37.1279 35.3975C37.1279 34.9033 36.9811 34.5023 36.6875 34.1943C36.3939 33.8792 35.9391 33.7217 35.3232 33.7217ZM53.5205 46L52.7471 43.0566H47.6445L46.8496 46H42.1875L47.3115 30.2305H52.9727L58.1611 46H53.5205ZM51.8662 39.5762L51.1895 36.998C51.1178 36.7188 51.014 36.3213 50.8779 35.8057C50.7419 35.2829 50.6058 34.7458 50.4697 34.1943C50.3408 33.6357 50.2406 33.1774 50.1689 32.8193C50.1045 33.1774 50.0114 33.6214 49.8896 34.1514C49.7751 34.6742 49.6533 35.1934 49.5244 35.709C49.4027 36.2246 49.2952 36.6543 49.2021 36.998L48.5254 39.5762H51.8662Z" fill="#F3F3F3"/>
</svg>
