<svg width="157" height="157" viewBox="0 0 157 157" fill="none" xmlns="http://www.w3.org/2000/svg">
<rect x="0.5" y="0.5" width="156" height="156" rx="78" fill="#292929"/>
<rect x="0.5" y="0.5" width="156" height="156" rx="78" stroke="#F3F3F3"/>
<path d="M56.4609 54.8379C57.4935 54.8379 58.4329 55.0706 59.2793 55.5361C60.1257 56.0016 60.8027 56.6787 61.3105 57.5674C61.8184 58.4561 62.0723 59.5394 62.0723 60.8174C62.0723 62.1969 61.793 63.3691 61.2344 64.334C60.6842 65.2904 59.8506 66.0182 58.7334 66.5176C57.6247 67.0085 56.224 67.2539 54.5312 67.2539C53.4564 67.2539 52.4746 67.1693 51.5859 67C50.7057 66.8392 49.9186 66.5895 49.2246 66.251V62.1377C49.8763 62.4339 50.6592 62.7048 51.5732 62.9502C52.4958 63.1872 53.3421 63.3057 54.1123 63.3057C54.7301 63.3057 55.2549 63.2168 55.6865 63.0391C56.1182 62.8613 56.444 62.599 56.6641 62.252C56.8926 61.9049 57.0068 61.4775 57.0068 60.9697C57.0068 60.2673 56.7529 59.7171 56.2451 59.3193C55.7373 58.9131 54.9671 58.71 53.9346 58.71C53.4691 58.71 53.012 58.7565 52.5635 58.8496C52.1149 58.9427 51.7214 59.0443 51.3828 59.1543L49.542 58.2402L50.2402 48.4395H60.8281V52.6162H54.5059L54.2773 55.0664C54.5482 55.0156 54.8232 54.9648 55.1025 54.9141C55.3903 54.8633 55.8431 54.8379 56.4609 54.8379ZM77.5859 57.7451C77.5859 59.2347 77.4674 60.5677 77.2305 61.7441C76.9935 62.9121 76.6126 63.9066 76.0879 64.7275C75.5716 65.5485 74.8861 66.1748 74.0312 66.6064C73.1764 67.0381 72.127 67.2539 70.8828 67.2539C69.334 67.2539 68.0645 66.8773 67.0742 66.124C66.084 65.3623 65.3519 64.2747 64.8779 62.8613C64.4124 61.4395 64.1797 59.734 64.1797 57.7451C64.1797 55.7393 64.3913 54.0254 64.8145 52.6035C65.2461 51.1732 65.9528 50.0771 66.9346 49.3154C67.9163 48.5537 69.2324 48.1729 70.8828 48.1729C72.4316 48.1729 73.6969 48.5537 74.6787 49.3154C75.6689 50.0687 76.401 51.1605 76.875 52.5908C77.349 54.0127 77.5859 55.7308 77.5859 57.7451ZM69.1689 57.7451C69.1689 58.9554 69.2113 59.971 69.2959 60.792C69.389 61.613 69.5583 62.2308 69.8037 62.6455C70.0576 63.0518 70.4173 63.2549 70.8828 63.2549C71.3483 63.2549 71.7038 63.0518 71.9492 62.6455C72.1947 62.2308 72.3639 61.6172 72.457 60.8047C72.5501 59.9837 72.5967 58.9639 72.5967 57.7451C72.5967 56.5179 72.5501 55.4938 72.457 54.6729C72.3639 53.8519 72.1947 53.234 71.9492 52.8193C71.7038 52.3962 71.3483 52.1846 70.8828 52.1846C70.4173 52.1846 70.0576 52.3962 69.8037 52.8193C69.5583 53.234 69.389 53.8519 69.2959 54.6729C69.2113 55.4938 69.1689 56.5179 69.1689 57.7451ZM92.8203 57.7451C92.8203 59.2347 92.7018 60.5677 92.4648 61.7441C92.2279 62.9121 91.847 63.9066 91.3223 64.7275C90.806 65.5485 90.1204 66.1748 89.2656 66.6064C88.4108 67.0381 87.3613 67.2539 86.1172 67.2539C84.5684 67.2539 83.2988 66.8773 82.3086 66.124C81.3184 65.3623 80.5863 64.2747 80.1123 62.8613C79.6468 61.4395 79.4141 59.734 79.4141 57.7451C79.4141 55.7393 79.6257 54.0254 80.0488 52.6035C80.4805 51.1732 81.1872 50.0771 82.1689 49.3154C83.1507 48.5537 84.4668 48.1729 86.1172 48.1729C87.666 48.1729 88.9313 48.5537 89.9131 49.3154C90.9033 50.0687 91.6354 51.1605 92.1094 52.5908C92.5833 54.0127 92.8203 55.7308 92.8203 57.7451ZM84.4033 57.7451C84.4033 58.9554 84.4456 59.971 84.5303 60.792C84.6234 61.613 84.7926 62.2308 85.0381 62.6455C85.292 63.0518 85.6517 63.2549 86.1172 63.2549C86.5827 63.2549 86.9382 63.0518 87.1836 62.6455C87.429 62.2308 87.5983 61.6172 87.6914 60.8047C87.7845 59.9837 87.8311 58.9639 87.8311 57.7451C87.8311 56.5179 87.7845 55.4938 87.6914 54.6729C87.5983 53.8519 87.429 53.234 87.1836 52.8193C86.9382 52.3962 86.5827 52.1846 86.1172 52.1846C85.6517 52.1846 85.292 52.3962 85.0381 52.8193C84.7926 53.234 84.6234 53.8519 84.5303 54.6729C84.4456 55.4938 84.4033 56.5179 84.4033 57.7451ZM103.04 56.1328H107.775V59.5352H103.04V64.1182H99.6377V59.5352H94.9023V56.1328H99.6377V51.4736H103.04V56.1328Z" fill="#F3F3F3"/>
<path d="M37.5391 89H35.9297L30.6797 83.2031V89H29.3516V77.5781H30.6797V83.1094L35.7969 77.5781H37.3203L32.2656 83.125L37.5391 89ZM49.0234 83.2734C49.0234 84.1536 48.9115 84.9557 48.6875 85.6797C48.4635 86.3984 48.1302 87.0182 47.6875 87.5391C47.25 88.0547 46.7057 88.4531 46.0547 88.7344C45.4036 89.0156 44.6484 89.1562 43.7891 89.1562C42.9036 89.1562 42.1302 89.0156 41.4688 88.7344C40.8125 88.4531 40.2656 88.0521 39.8281 87.5312C39.3958 87.0104 39.0703 86.388 38.8516 85.6641C38.638 84.9401 38.5312 84.138 38.5312 83.2578C38.5312 82.0911 38.724 81.0677 39.1094 80.1875C39.4948 79.3073 40.0781 78.6224 40.8594 78.1328C41.6458 77.6432 42.6302 77.3984 43.8125 77.3984C44.9427 77.3984 45.8932 77.6406 46.6641 78.125C47.4401 78.6094 48.026 79.2917 48.4219 80.1719C48.8229 81.0469 49.0234 82.0807 49.0234 83.2734ZM39.9297 83.2734C39.9297 84.2422 40.0677 85.0807 40.3438 85.7891C40.6198 86.4974 41.0417 87.0443 41.6094 87.4297C42.1823 87.8151 42.9089 88.0078 43.7891 88.0078C44.6745 88.0078 45.3984 87.8151 45.9609 87.4297C46.5286 87.0443 46.9479 86.4974 47.2188 85.7891C47.4896 85.0807 47.625 84.2422 47.625 83.2734C47.625 81.7995 47.3151 80.6484 46.6953 79.8203C46.0807 78.987 45.1198 78.5703 43.8125 78.5703C42.9271 78.5703 42.1979 78.7604 41.625 79.1406C41.0521 79.5208 40.625 80.0625 40.3438 80.7656C40.0677 81.4635 39.9297 82.2995 39.9297 83.2734ZM60.2266 89H58.8984V83.6172H52.8984V89H51.5703V77.5781H52.8984V82.4453H58.8984V77.5781H60.2266V89ZM63.3672 77.5781H66.6016C68.0286 77.5781 69.1016 77.7917 69.8203 78.2188C70.5391 78.6458 70.8984 79.3724 70.8984 80.3984C70.8984 80.8411 70.8125 81.2396 70.6406 81.5938C70.474 81.9427 70.2292 82.2318 69.9062 82.4609C69.5833 82.6901 69.1849 82.849 68.7109 82.9375V83.0156C69.2109 83.0938 69.6536 83.237 70.0391 83.4453C70.4245 83.6536 70.7266 83.9453 70.9453 84.3203C71.1641 84.6953 71.2734 85.1719 71.2734 85.75C71.2734 86.4531 71.1094 87.0469 70.7812 87.5312C70.4583 88.0156 70 88.3828 69.4062 88.6328C68.8125 88.8776 68.1094 89 67.2969 89H63.3672V77.5781ZM64.6953 82.4766H66.8828C67.8776 82.4766 68.5651 82.3125 68.9453 81.9844C69.3307 81.6562 69.5234 81.1771 69.5234 80.5469C69.5234 79.8958 69.2943 79.4271 68.8359 79.1406C68.3828 78.8542 67.6589 78.7109 66.6641 78.7109H64.6953V82.4766ZM64.6953 83.5938V87.8672H67.0703C68.0859 87.8672 68.8047 87.6693 69.2266 87.2734C69.6484 86.8724 69.8594 86.3333 69.8594 85.6562C69.8594 85.224 69.763 84.8542 69.5703 84.5469C69.3828 84.2396 69.0755 84.0052 68.6484 83.8438C68.2266 83.6771 67.6615 83.5938 66.9531 83.5938H64.6953ZM80.0703 89H73.7109V77.5781H80.0703V78.75H75.0391V82.4453H79.7812V83.6016H75.0391V87.8281H80.0703V89ZM85.5859 77.5781C87.0599 77.5781 88.1354 77.8672 88.8125 78.4453C89.4948 79.0182 89.8359 79.8411 89.8359 80.9141C89.8359 81.3984 89.7552 81.8594 89.5938 82.2969C89.4375 82.7292 89.1823 83.112 88.8281 83.4453C88.474 83.7734 88.0078 84.0339 87.4297 84.2266C86.8568 84.4141 86.1536 84.5078 85.3203 84.5078H83.9297V89H82.6016V77.5781H85.5859ZM85.4609 78.7109H83.9297V83.3672H85.1719C85.901 83.3672 86.5078 83.2891 86.9922 83.1328C87.4818 82.9766 87.849 82.724 88.0938 82.375C88.3385 82.0208 88.4609 81.5521 88.4609 80.9688C88.4609 80.2083 88.2188 79.6432 87.7344 79.2734C87.25 78.8984 86.4922 78.7109 85.4609 78.7109ZM97.1094 78.5859C96.4792 78.5859 95.9115 78.6953 95.4062 78.9141C94.9062 79.1276 94.4792 79.4401 94.125 79.8516C93.776 80.2578 93.5078 80.75 93.3203 81.3281C93.1328 81.9062 93.0391 82.5573 93.0391 83.2812C93.0391 84.2396 93.1875 85.0729 93.4844 85.7812C93.7865 86.4844 94.2344 87.0286 94.8281 87.4141C95.4271 87.7995 96.1745 87.9922 97.0703 87.9922C97.5807 87.9922 98.0599 87.9505 98.5078 87.8672C98.9609 87.7786 99.401 87.6693 99.8281 87.5391V88.6953C99.4115 88.8516 98.974 88.9661 98.5156 89.0391C98.0573 89.1172 97.513 89.1562 96.8828 89.1562C95.7214 89.1562 94.75 88.9167 93.9688 88.4375C93.1927 87.9531 92.6094 87.2708 92.2188 86.3906C91.8333 85.5104 91.6406 84.4714 91.6406 83.2734C91.6406 82.4089 91.7604 81.6198 92 80.9062C92.2448 80.1875 92.599 79.5677 93.0625 79.0469C93.5312 78.526 94.1042 78.125 94.7812 77.8438C95.4635 77.5573 96.2448 77.4141 97.125 77.4141C97.7031 77.4141 98.2604 77.4714 98.7969 77.5859C99.3333 77.7005 99.8177 77.8646 100.25 78.0781L99.7188 79.2031C99.3542 79.0365 98.9531 78.8932 98.5156 78.7734C98.0833 78.6484 97.6146 78.5859 97.1094 78.5859ZM102.32 77.5781H103.562V84.1797C103.562 84.4297 103.56 84.7031 103.555 85C103.549 85.2917 103.542 85.5781 103.531 85.8594C103.521 86.1406 103.508 86.3958 103.492 86.625C103.482 86.8542 103.471 87.0312 103.461 87.1562H103.523L109.883 77.5781H111.344V89H110.102V82.4766C110.102 82.2005 110.107 81.9089 110.117 81.6016C110.128 81.2891 110.138 80.987 110.148 80.6953C110.164 80.4036 110.18 80.1432 110.195 79.9141C110.211 79.6797 110.221 79.5 110.227 79.375H110.156L103.789 89H102.32V77.5781ZM114.477 77.5781H115.719V84.1797C115.719 84.4297 115.716 84.7031 115.711 85C115.706 85.2917 115.698 85.5781 115.688 85.8594C115.677 86.1406 115.664 86.3958 115.648 86.625C115.638 86.8542 115.628 87.0312 115.617 87.1562H115.68L122.039 77.5781H123.5V89H122.258V82.4766C122.258 82.2005 122.263 81.9089 122.273 81.6016C122.284 81.2891 122.294 80.987 122.305 80.6953C122.32 80.4036 122.336 80.1432 122.352 79.9141C122.367 79.6797 122.378 79.5 122.383 79.375H122.312L115.945 89H114.477V77.5781ZM122.086 74.0469C122.039 74.5729 121.906 75.013 121.688 75.3672C121.474 75.7214 121.159 75.9896 120.742 76.1719C120.326 76.349 119.792 76.4375 119.141 76.4375C118.469 76.4375 117.927 76.3516 117.516 76.1797C117.109 76.0026 116.807 75.737 116.609 75.3828C116.417 75.0286 116.302 74.5833 116.266 74.0469H117.484C117.542 74.6198 117.695 75.0104 117.945 75.2188C118.195 75.4271 118.602 75.5312 119.164 75.5312C119.664 75.5312 120.057 75.4219 120.344 75.2031C120.63 74.9844 120.802 74.599 120.859 74.0469H122.086ZM51.9219 99.5781H55.1562C56.5833 99.5781 57.6562 99.7917 58.375 100.219C59.0938 100.646 59.4531 101.372 59.4531 102.398C59.4531 102.841 59.3672 103.24 59.1953 103.594C59.0286 103.943 58.7839 104.232 58.4609 104.461C58.138 104.69 57.7396 104.849 57.2656 104.938V105.016C57.7656 105.094 58.2083 105.237 58.5938 105.445C58.9792 105.654 59.2812 105.945 59.5 106.32C59.7188 106.695 59.8281 107.172 59.8281 107.75C59.8281 108.453 59.6641 109.047 59.3359 109.531C59.013 110.016 58.5547 110.383 57.9609 110.633C57.3672 110.878 56.6641 111 55.8516 111H51.9219V99.5781ZM53.25 104.477H55.4375C56.4323 104.477 57.1198 104.312 57.5 103.984C57.8854 103.656 58.0781 103.177 58.0781 102.547C58.0781 101.896 57.849 101.427 57.3906 101.141C56.9375 100.854 56.2135 100.711 55.2188 100.711H53.25V104.477ZM53.25 105.594V109.867H55.625C56.6406 109.867 57.3594 109.669 57.7812 109.273C58.2031 108.872 58.4141 108.333 58.4141 107.656C58.4141 107.224 58.3177 106.854 58.125 106.547C57.9375 106.24 57.6302 106.005 57.2031 105.844C56.7812 105.677 56.2161 105.594 55.5078 105.594H53.25ZM74.0312 99.5781V109.812H75.4375V113.984H74.1641V111H66.2266V113.984H64.9531V109.812H65.8281C66.2188 109.146 66.5833 108.398 66.9219 107.57C67.2656 106.737 67.5703 105.867 67.8359 104.961C68.1068 104.049 68.3255 103.135 68.4922 102.219C68.6641 101.302 68.7734 100.422 68.8203 99.5781H74.0312ZM72.7109 100.773H69.9922C69.9453 101.419 69.8411 102.141 69.6797 102.938C69.5182 103.729 69.3099 104.542 69.0547 105.375C68.8047 106.208 68.5234 107.008 68.2109 107.773C67.9036 108.539 67.5781 109.219 67.2344 109.812H72.7109V100.773ZM83.7344 111H77.375V99.5781H83.7344V100.75H78.7031V104.445H83.4453V105.602H78.7031V109.828H83.7344V111ZM94.9219 111H93.5938V105.617H87.5938V111H86.2656V99.5781H87.5938V104.445H93.5938V99.5781H94.9219V111ZM98.0625 111V99.5781H99.3906V104.438H101.562C102.594 104.438 103.419 104.578 104.039 104.859C104.664 105.135 105.115 105.518 105.391 106.008C105.672 106.492 105.812 107.044 105.812 107.664C105.812 108.685 105.477 109.497 104.805 110.102C104.133 110.701 103.112 111 101.742 111H98.0625ZM99.3906 109.859H101.602C102.549 109.859 103.26 109.68 103.734 109.32C104.208 108.956 104.445 108.404 104.445 107.664C104.445 107.148 104.328 106.74 104.094 106.438C103.859 106.135 103.516 105.919 103.062 105.789C102.615 105.659 102.06 105.594 101.398 105.594H99.3906V109.859Z" fill="#CBCBCB"/>
</svg>
