<svg width="276" height="142" viewBox="0 0 276 142" fill="none" xmlns="http://www.w3.org/2000/svg">
<path d="M60.4204 0H80.8273L49.7057 39.8574V67.0247H31.255V40.0808L0 0H20.4069L40.4136 25.6481L60.4204 0Z" fill="#F3F3F3"/>
<path d="M168.088 49.6877L182.048 0H201.521L181.248 67.0247H157.551L141.99 20.9564L126.385 67.0247H102.688L82.4146 0H101.977L115.893 49.643L132.254 0H151.727L168.088 49.6877Z" fill="#F3F3F3"/>
<path d="M57.9245 140.983H42.3177L36.6453 136.114C34.2537 138.189 31.7292 139.689 29.0719 140.613C26.435 141.538 23.3177 142 19.7201 142C15.9589 142 12.6781 141.404 9.87766 140.213C7.09767 139.021 4.96157 137.388 3.46937 135.313C1.99761 133.217 1.26173 130.865 1.26173 128.256C1.26173 125.318 2.22246 122.761 4.14393 120.583C6.06539 118.385 8.99869 116.762 12.9438 115.714C11.1041 114.091 9.67325 112.468 8.65119 110.845C7.62914 109.202 7.11811 107.496 7.11811 105.73C7.11811 103.367 7.83355 101.282 9.26443 99.474C10.7157 97.6661 12.8416 96.2588 15.6421 95.2522C18.4425 94.2455 21.8051 93.7422 25.7298 93.7422C29.6953 93.7422 33.1294 94.3585 36.0321 95.5911C38.9552 96.8238 41.2139 98.5084 42.8083 100.645C44.4232 102.782 45.3123 105.206 45.4759 107.918H32.9966C32.8126 106.315 32.138 105.031 30.9729 104.066C29.8282 103.1 28.244 102.617 26.2203 102.617C24.3806 102.617 22.9498 102.977 21.9277 103.696C20.9056 104.415 20.3946 105.38 20.3946 106.592C20.3946 107.25 20.5888 107.918 20.9772 108.595C21.386 109.253 22.0299 109.951 22.9089 110.691L36.7373 122.648L42.2257 115.437H55.2263L43.6362 128.626L57.9245 140.983ZM21.5904 132.601C24.7997 132.601 27.5592 131.831 29.8691 130.29L18.5549 120.552C17.0014 121.209 15.8056 122.052 14.9675 123.079C14.1499 124.106 13.741 125.267 13.741 126.561C13.741 127.691 14.0681 128.718 14.7222 129.643C15.3763 130.567 16.2962 131.297 17.4818 131.831C18.6878 132.344 20.0573 132.601 21.5904 132.601Z" fill="#F3F3F3"/>
<path d="M93.0585 140.983L80.7325 124.342H74.0789V140.983H61.3543V94.7591H88.6739C92.1489 94.7591 95.2048 95.3754 97.8417 96.6081C100.499 97.8407 102.553 99.5869 104.005 101.847C105.476 104.086 106.212 106.675 106.212 109.612C106.212 111.934 105.742 114.05 104.802 115.961C103.862 117.851 102.513 119.453 100.755 120.768C99.0171 122.083 96.9627 123.038 94.5916 123.634L107.807 140.983H93.0585ZM74.0789 104.25V114.974H86.9262C88.9294 114.974 90.5033 114.502 91.6481 113.557C92.7928 112.612 93.3651 111.297 93.3651 109.612C93.3651 107.928 92.7928 106.613 91.6481 105.668C90.5238 104.723 88.9498 104.25 86.9262 104.25H74.0789Z" fill="#F3F3F3"/>
<path d="M113.455 140.983V94.7591H126.18V140.983H113.455Z" fill="#F3F3F3"/>
<path d="M185.828 121.631C185.378 125.678 183.988 129.242 181.658 132.324C179.328 135.385 176.251 137.768 172.429 139.473C168.606 141.158 164.283 142 159.459 142C154.165 142 149.494 140.993 145.446 138.98C141.399 136.967 138.261 134.142 136.033 130.506C133.826 126.849 132.722 122.637 132.722 117.871C132.722 113.105 133.826 108.904 136.033 105.267C138.261 101.611 141.399 98.7755 145.446 96.7622C149.494 94.7488 154.165 93.7422 159.459 93.7422C164.283 93.7422 168.606 94.5948 172.429 96.2999C176.251 97.9845 179.328 100.368 181.658 103.449C183.988 106.51 185.378 110.064 185.828 114.112H173.042C172.429 111.194 170.947 108.914 168.596 107.27C166.245 105.627 163.189 104.805 159.428 104.805C156.587 104.805 154.124 105.339 152.039 106.408C149.974 107.455 148.38 108.965 147.255 110.937C146.152 112.889 145.6 115.2 145.6 117.871C145.6 120.542 146.152 122.863 147.255 124.836C148.38 126.787 149.974 128.297 152.039 129.365C154.124 130.413 156.587 130.937 159.428 130.937C163.23 130.937 166.296 130.146 168.627 128.564C170.977 126.962 172.449 124.651 173.042 121.631H185.828Z" fill="#F3F3F3"/>
<path d="M228.208 111.862V94.7591H240.933V140.983H228.208V123.141H204.69V140.983H191.966V94.7591H204.69V111.862H228.208Z" fill="#F3F3F3"/>
<path d="M236.268 43.8102C234.449 47.5576 231.089 50.3591 226.925 51.5984C222.762 52.8378 218.136 52.4133 214.067 50.4185C209.997 48.4237 206.817 45.022 205.225 40.9616C203.634 36.9012 203.761 32.5148 205.58 28.7674L236.268 43.8102Z" fill="#F3F3F3"/>
<path d="M243.85 43.8102C245.668 47.5576 249.029 50.3591 253.192 51.5984C257.356 52.8378 261.981 52.4133 266.051 50.4185C270.12 48.4237 273.3 45.022 274.892 40.9616C276.484 36.9012 276.356 32.5148 274.538 28.7674L243.85 43.8102Z" fill="#F3F3F3"/>
</svg>
