<svg width="73" height="73" viewBox="0 0 73 73" fill="none" xmlns="http://www.w3.org/2000/svg">
<rect x="0.5" y="0.5" width="72" height="72" rx="36" fill="#292929"/>
<rect x="0.5" y="0.5" width="72" height="72" rx="36" stroke="white"/>
<path d="M53.3765 38.3388L47.557 41.481L42.3374 36.5325L47.5986 31.5444L53.3765 34.6639C53.7175 34.8479 54.0012 35.1149 54.1986 35.4378C54.396 35.7606 54.5 36.1276 54.5 36.5014C54.5 36.8751 54.396 37.2422 54.1986 37.565C54.0012 37.8878 53.7175 38.1549 53.3765 38.3388ZM22.6663 20.8087C22.5566 21.0641 22.5001 21.3374 22.5 21.6134V51.388C22.5 51.6954 22.5668 51.9816 22.6841 52.238L39.2487 36.5311L22.6663 20.8087ZM40.7931 35.0677L45.631 30.4804L25.804 19.7759C25.3789 19.5434 24.8841 19.454 24.3992 19.5223L40.7931 35.0677ZM40.7931 37.996L24.4586 53.4847C24.9012 53.5357 25.3674 53.462 25.804 53.2254L45.5894 42.5436L40.7931 37.996Z" fill="white"/>
</svg>
