<svg width="117" height="117" viewBox="0 0 117 117" fill="none" xmlns="http://www.w3.org/2000/svg">
<rect x="0.5" y="0.5" width="116" height="116" rx="58" fill="#292929"/>
<rect x="0.5" y="0.5" width="116" height="116" rx="58" stroke="white"/>
<path d="M37.388 47.6491C39.3996 43.646 42.4843 40.2808 46.2977 37.9294C50.1112 35.578 54.5032 34.3329 58.9833 34.3333C65.4962 34.3333 70.9676 36.7282 75.1508 40.6287L68.2222 47.5597C65.7162 45.1648 62.531 43.9443 58.9833 43.9443C52.6879 43.9443 47.3592 48.1977 45.4621 53.9083C44.9787 55.3583 44.7032 56.9049 44.7032 58.4999C44.7032 60.0949 44.9787 61.6416 45.4621 63.0916C47.3616 68.8046 52.6879 73.0555 58.9833 73.0555C62.2337 73.0555 65.0008 72.1976 67.1662 70.7476C68.4215 69.9211 69.4961 68.8486 70.3252 67.595C71.1543 66.3414 71.7206 64.9327 71.9898 63.4541H58.9833V54.1064H81.7435C82.0287 55.6869 82.1833 57.3351 82.1833 59.0485C82.1833 66.4097 79.5492 72.606 74.9768 76.811C70.9797 80.5037 65.5083 82.6666 58.9833 82.6666C55.8094 82.6679 52.6662 82.0436 49.7336 80.8296C46.801 79.6156 44.1364 77.8355 41.8921 75.5912C39.6477 73.3468 37.8677 70.6822 36.6536 67.7496C35.4396 64.817 34.8154 61.6739 34.8167 58.4999C34.8167 54.5994 35.7495 50.9116 37.388 47.6491Z" fill="white"/>
</svg>
