<svg width="122" height="122" viewBox="0 0 122 122" fill="none" xmlns="http://www.w3.org/2000/svg">
<rect x="0.5" y="0.5" width="121" height="121" rx="60.5" fill="#292929"/>
<rect x="0.5" y="0.5" width="121" height="121" rx="60.5" stroke="#F3F3F3"/>
<path d="M33.1572 70H28.8926V63.5977H23.9619V70H19.6973V54.2949H23.9619V60.1172H28.8926V54.2949H33.1572V70ZM42.1699 60.1172L44.877 54.2949H49.4746L44.3076 63.8662V70H40.0322V63.9951L34.8652 54.2949H39.4844L42.1699 60.1172ZM51.1719 54.2949H56.6504C58.9206 54.2949 60.5391 54.6315 61.5059 55.3047C62.4727 55.9779 62.9561 56.9447 62.9561 58.2051C62.9561 58.8926 62.8307 59.4762 62.5801 59.9561C62.3366 60.4359 62.0251 60.8154 61.6455 61.0947C61.2731 61.374 60.89 61.5638 60.4961 61.6641V61.7715C60.9258 61.8789 61.3519 62.0579 61.7744 62.3086C62.2041 62.5521 62.5586 62.9209 62.8379 63.415C63.1243 63.902 63.2676 64.5645 63.2676 65.4023C63.2676 66.3548 63.0241 67.1748 62.5371 67.8623C62.0573 68.5498 61.3698 69.0798 60.4746 69.4521C59.5794 69.8174 58.516 70 57.2842 70H51.1719V54.2949ZM55.415 60.3213H56.6934C57.3952 60.3213 57.8893 60.1781 58.1758 59.8916C58.4622 59.598 58.6055 59.2435 58.6055 58.8281C58.6055 58.3984 58.4408 58.0726 58.1113 57.8506C57.7891 57.6214 57.2878 57.5068 56.6074 57.5068H55.415V60.3213ZM55.415 63.4258V66.7236H56.9082C57.6458 66.7236 58.1615 66.5661 58.4551 66.251C58.7487 65.9287 58.8955 65.5277 58.8955 65.0479C58.8955 64.7686 58.8311 64.5072 58.7021 64.2637C58.5804 64.013 58.3691 63.8125 58.0684 63.6621C57.7676 63.5046 57.3522 63.4258 56.8223 63.4258H55.415ZM71.1416 54.2949C72.5667 54.2949 73.752 54.4704 74.6973 54.8213C75.6426 55.165 76.3516 55.6807 76.8242 56.3682C77.304 57.0557 77.5439 57.9115 77.5439 58.9355C77.5439 59.5729 77.4365 60.153 77.2217 60.6758C77.0068 61.1986 76.6989 61.6676 76.2979 62.083C75.904 62.4912 75.4313 62.8493 74.8799 63.1572L79.4561 70H74.6436L71.3135 64.2852H70.2393V70H65.9961V54.2949H71.1416ZM71.0771 57.5068H70.2393V61.0947H71.0342C71.6859 61.0947 72.2194 60.9515 72.6348 60.665C73.0501 60.3786 73.2578 59.8665 73.2578 59.1289C73.2578 58.6204 73.0859 58.223 72.7422 57.9365C72.3984 57.6501 71.8434 57.5068 71.0771 57.5068ZM80.8848 70V54.2949H85.1494V70H80.8848ZM101.886 61.8145C101.886 63.6406 101.546 65.1589 100.865 66.3691C100.185 67.5794 99.2253 68.4889 97.9863 69.0977C96.7546 69.6992 95.3044 70 93.6357 70H88.5547V54.2949H93.9902C95.6803 54.2949 97.1126 54.585 98.2871 55.165C99.4616 55.7451 100.353 56.5938 100.962 57.7109C101.578 58.8281 101.886 60.196 101.886 61.8145ZM97.4814 61.9648C97.4814 61.0124 97.3525 60.2246 97.0947 59.6016C96.8441 58.9714 96.4645 58.5023 95.9561 58.1943C95.4476 57.8792 94.8066 57.7217 94.0332 57.7217H92.7979V66.5195H93.7432C95.0322 66.5195 95.9775 66.1471 96.5791 65.4023C97.1807 64.6504 97.4814 63.5046 97.4814 61.9648Z" fill="#F3F3F3"/>
</svg>
