<svg width="320" height="1321" viewBox="0 0 320 1321" fill="none" xmlns="http://www.w3.org/2000/svg">
<path d="M-19.1985 17.3079L-66.7565 0L-510.356 1218.65L-462.798 1235.96L-19.1985 17.3079Z" fill="#131313"/>
<path d="M279.992 102.348L232.434 85.0401L-211.166 1303.69L-163.608 1321L279.992 102.348Z" fill="#131313"/>
<path d="M-1231.58 167.564L-1266.74 203.966L-333.755 1104.84L-298.598 1068.44L-1231.58 167.564Z" fill="#131313"/>
<path d="M-1184.82 792.696L-1202.13 840.249L16.6482 1283.8L33.9579 1236.25L-1184.82 792.696Z" fill="#131313"/>
<path d="M-764.133 194.377L-781.443 241.93L437.337 685.483L454.647 637.93L-764.133 194.377Z" fill="#131313"/>
<path d="M-937.269 457.091L-954.578 504.644L264.202 948.197L281.511 900.644L-937.269 457.091Z" fill="#131313"/>
<path d="M-1198.48 1120.68L-1176.3 1166.16L628 286.238L605.814 240.754L-1198.48 1120.68Z" fill="#131313"/>
<path d="M-1466 919.406L-1443.81 964.889L360.485 84.9662L338.299 39.4829L-1466 919.406Z" fill="#131313"/>
</svg>
