<svg width="768" height="1321" viewBox="0 0 768 1321" fill="none" xmlns="http://www.w3.org/2000/svg">
<path d="M946.801 17.3079L899.244 0L455.644 1218.65L503.202 1235.96L946.801 17.3079Z" fill="#131313"/>
<path d="M1245.99 102.348L1198.43 85.0401L754.834 1303.69L802.392 1321L1245.99 102.348Z" fill="#131313"/>
<path d="M-265.581 167.564L-300.738 203.966L632.245 1104.84L667.402 1068.44L-265.581 167.564Z" fill="#131313"/>
<path d="M-218.822 792.696L-236.132 840.249L982.648 1283.8L999.958 1236.25L-218.822 792.696Z" fill="#131313"/>
<path d="M201.867 194.377L184.557 241.93L1403.34 685.483L1420.65 637.93L201.867 194.377Z" fill="#131313"/>
<path d="M28.7314 457.091L11.4218 504.644L1230.2 948.197L1247.51 900.644L28.7314 457.091Z" fill="#131313"/>
<path d="M-232.485 1120.68L-210.299 1166.16L1594 286.238L1571.81 240.754L-232.485 1120.68Z" fill="#131313"/>
<path d="M-500 919.406L-477.814 964.889L1326.48 84.9662L1304.3 39.4829L-500 919.406Z" fill="#131313"/>
</svg>
