<svg width="1440" height="1321" viewBox="0 0 1440 1321" fill="none" xmlns="http://www.w3.org/2000/svg">
<path d="M1390.8 17.3079L1343.24 0L899.644 1218.65L947.202 1235.96L1390.8 17.3079Z" fill="#131313"/>
<path d="M1689.99 102.348L1642.43 85.0401L1198.83 1303.69L1246.39 1321L1689.99 102.348Z" fill="#131313"/>
<path d="M178.419 167.564L143.262 203.966L1076.24 1104.84L1111.4 1068.44L178.419 167.564Z" fill="#131313"/>
<path d="M225.178 792.696L207.868 840.249L1426.65 1283.8L1443.96 1236.25L225.178 792.696Z" fill="#131313"/>
<path d="M645.867 194.377L628.557 241.93L1847.34 685.483L1864.65 637.93L645.867 194.377Z" fill="#131313"/>
<path d="M472.731 457.091L455.422 504.644L1674.2 948.197L1691.51 900.644L472.731 457.091Z" fill="#131313"/>
<path d="M211.515 1120.68L233.701 1166.16L2038 286.238L2015.81 240.754L211.515 1120.68Z" fill="#131313"/>
<path d="M-56 919.406L-33.814 964.889L1770.48 84.9662L1748.3 39.4829L-56 919.406Z" fill="#131313"/>
</svg>
