<svg width="768" height="1321" viewBox="0 0 768 1321" fill="none" xmlns="http://www.w3.org/2000/svg">
<path d="M518.801 17.3079L471.244 0L27.6439 1218.65L75.2018 1235.96L518.801 17.3079Z" fill="#131313"/>
<path d="M817.992 102.348L770.434 85.0401L326.834 1303.69L374.392 1321L817.992 102.348Z" fill="#131313"/>
<path d="M-693.581 167.564L-728.738 203.966L204.245 1104.84L239.402 1068.44L-693.581 167.564Z" fill="#131313"/>
<path d="M-646.822 792.696L-664.132 840.249L554.648 1283.8L571.958 1236.25L-646.822 792.696Z" fill="#131313"/>
<path d="M-226.133 194.377L-243.443 241.93L975.337 685.483L992.647 637.93L-226.133 194.377Z" fill="#131313"/>
<path d="M-399.269 457.091L-416.578 504.644L802.202 948.197L819.511 900.644L-399.269 457.091Z" fill="#131313"/>
<path d="M-660.485 1120.68L-638.299 1166.16L1166 286.238L1143.81 240.754L-660.485 1120.68Z" fill="#131313"/>
<path d="M-928 919.406L-905.814 964.889L898.485 84.9662L876.299 39.4829L-928 919.406Z" fill="#131313"/>
</svg>
