<svg width="320" height="1208" viewBox="0 0 320 1208" fill="none" xmlns="http://www.w3.org/2000/svg">
<path d="M378.801 15.8273L331.244 0L-112.356 1114.41L-64.7982 1130.23L378.801 15.8273Z" fill="#131313"/>
<path d="M677.992 93.593L630.434 77.7657L186.834 1192.17L234.392 1208L677.992 93.593Z" fill="#131313"/>
<path d="M-833.581 153.23L-868.738 186.518L64.245 1010.33L99.4017 977.044L-833.581 153.23Z" fill="#131313"/>
<path d="M-786.822 724.887L-804.132 768.373L414.648 1173.98L431.958 1130.5L-786.822 724.887Z" fill="#131313"/>
<path d="M-366.133 177.75L-383.443 221.235L835.337 626.846L852.647 583.361L-366.133 177.75Z" fill="#131313"/>
<path d="M-539.269 417.991L-556.578 461.476L662.202 867.087L679.511 823.602L-539.269 417.991Z" fill="#131313"/>
<path d="M-800.485 1024.81L-778.299 1066.41L1026 261.752L1003.81 220.16L-800.485 1024.81Z" fill="#131313"/>
<path d="M-1068 840.759L-1045.81 882.351L758.485 77.6981L736.299 36.1055L-1068 840.759Z" fill="#131313"/>
</svg>
