<svg width="320" height="1321" viewBox="0 0 320 1321" fill="none" xmlns="http://www.w3.org/2000/svg">
<path d="M565.801 17.3079L518.244 0L74.6439 1218.65L122.202 1235.96L565.801 17.3079Z" fill="#131313"/>
<path d="M864.992 102.348L817.434 85.0401L373.834 1303.69L421.392 1321L864.992 102.348Z" fill="#131313"/>
<path d="M-646.581 167.564L-681.738 203.966L251.245 1104.84L286.402 1068.44L-646.581 167.564Z" fill="#131313"/>
<path d="M-599.822 792.696L-617.132 840.249L601.648 1283.8L618.958 1236.25L-599.822 792.696Z" fill="#131313"/>
<path d="M-179.133 194.377L-196.443 241.93L1022.34 685.483L1039.65 637.93L-179.133 194.377Z" fill="#131313"/>
<path d="M-352.269 457.091L-369.578 504.644L849.202 948.197L866.511 900.644L-352.269 457.091Z" fill="#131313"/>
<path d="M-613.485 1120.68L-591.299 1166.16L1213 286.238L1190.81 240.754L-613.485 1120.68Z" fill="#131313"/>
<path d="M-881 919.406L-858.814 964.889L945.485 84.9662L923.299 39.4829L-881 919.406Z" fill="#131313"/>
</svg>
