<svg width="1440" height="1144" viewBox="0 0 1440 1144" fill="none" xmlns="http://www.w3.org/2000/svg">
<path d="M993.801 -159.692L946.244 -177L502.644 1041.65L550.202 1058.96L993.801 -159.692Z" fill="#131313"/>
<path d="M1292.99 -74.652L1245.43 -91.9599L801.834 1126.69L849.392 1144L1292.99 -74.652Z" fill="#131313"/>
<path d="M-218.581 -9.43617L-253.738 26.9659L679.245 927.842L714.402 891.44L-218.581 -9.43617Z" fill="#131313"/>
<path d="M-171.822 615.696L-189.132 663.249L1029.65 1106.8L1046.96 1059.25L-171.822 615.696Z" fill="#131313"/>
<path d="M248.867 17.3774L231.557 64.9304L1450.34 508.483L1467.65 460.93L248.867 17.3774Z" fill="#131313"/>
<path d="M75.7314 280.091L58.4218 327.644L1277.2 771.197L1294.51 723.644L75.7314 280.091Z" fill="#131313"/>
<path d="M-185.485 943.677L-163.299 989.16L1641 109.238L1618.81 63.7543L-185.485 943.677Z" fill="#131313"/>
<path d="M-453 742.406L-430.814 787.889L1373.48 -92.0338L1351.3 -137.517L-453 742.406Z" fill="#131313"/>
</svg>
