<svg width="320" height="671" viewBox="0 0 320 671" fill="none" xmlns="http://www.w3.org/2000/svg">
<path d="M457.535 -232.012L424.581 -244L117.196 600.108L150.151 612.096L457.535 -232.012Z" fill="#131313"/>
<path d="M664.854 -173.108L631.9 -185.096L324.515 659.012L357.47 671L664.854 -173.108Z" fill="#131313"/>
<path d="M-382.564 -127.936L-406.925 -102.722L239.569 521.277L263.93 496.063L-382.564 -127.936Z" fill="#131313"/>
<path d="M-350.163 305.066L-362.157 338.004L482.375 645.234L494.369 612.296L-350.163 305.066Z" fill="#131313"/>
<path d="M-58.6538 -109.363L-70.6483 -76.4252L773.884 230.805L785.878 197.867L-58.6538 -109.363Z" fill="#131313"/>
<path d="M-178.625 72.6071L-190.62 105.545L653.912 412.775L665.907 379.837L-178.625 72.6071Z" fill="#131313"/>
<path d="M-359.63 532.245L-344.257 563.749L906 -45.7355L890.627 -77.2399L-359.63 532.245Z" fill="#131313"/>
<path d="M-545 392.833L-529.627 424.337L720.63 -185.148L705.257 -216.652L-545 392.833Z" fill="#131313"/>
</svg>
