<svg width="1440" height="1321" viewBox="0 0 1440 1321" fill="none" xmlns="http://www.w3.org/2000/svg">
<path d="M992.801 17.3079L945.244 0L501.644 1218.65L549.202 1235.96L992.801 17.3079Z" fill="#131313"/>
<path d="M1291.99 102.348L1244.43 85.0401L800.834 1303.69L848.392 1321L1291.99 102.348Z" fill="#131313"/>
<path d="M-219.581 167.564L-254.738 203.966L678.245 1104.84L713.402 1068.44L-219.581 167.564Z" fill="#131313"/>
<path d="M-172.822 792.696L-190.132 840.249L1028.65 1283.8L1045.96 1236.25L-172.822 792.696Z" fill="#131313"/>
<path d="M247.867 194.377L230.557 241.93L1449.34 685.483L1466.65 637.93L247.867 194.377Z" fill="#131313"/>
<path d="M74.7314 457.091L57.4218 504.644L1276.2 948.197L1293.51 900.644L74.7314 457.091Z" fill="#131313"/>
<path d="M-186.485 1120.68L-164.299 1166.16L1640 286.238L1617.81 240.754L-186.485 1120.68Z" fill="#131313"/>
<path d="M-454 919.406L-431.814 964.889L1372.48 84.9662L1350.3 39.4829L-454 919.406Z" fill="#131313"/>
</svg>
