<svg width="74" height="38" viewBox="0 0 74 38" fill="none" xmlns="http://www.w3.org/2000/svg">
<path d="M16.1997 0H21.6711L13.3269 10.6661V17.9362H8.37996V10.7258L0 0H5.47141L10.8355 6.86359L16.1997 0Z" fill="#F3F3F3"/>
<path d="M45.0671 13.2967L48.81 0H54.0311L48.5955 17.9362H42.2419L38.0698 5.60805L33.8858 17.9362H27.5323L22.0967 0H27.3416L31.0726 13.2847L35.4593 0H40.6804L45.0671 13.2967Z" fill="#F3F3F3"/>
<path d="M15.5305 37.7279H11.3461L9.82519 36.4249C9.18396 36.9802 8.50711 37.3815 7.79463 37.6289C7.08764 37.8763 6.25185 38 5.28726 38C4.27883 38 3.3992 37.8406 2.64836 37.5217C1.903 37.2028 1.33028 36.7658 0.930193 36.2105C0.535591 35.6497 0.338289 35.0203 0.338289 34.322C0.338289 33.5359 0.595877 32.8514 1.11105 32.2687C1.62623 31.6804 2.41269 31.2461 3.47045 30.9657C2.97719 30.5314 2.59355 30.0971 2.31952 29.6628C2.04549 29.2229 1.90848 28.7666 1.90848 28.2938C1.90848 27.6616 2.1003 27.1036 2.48394 26.6198C2.87306 26.136 3.44304 25.7594 4.19389 25.49C4.94473 25.2206 5.84628 25.0859 6.89856 25.0859C7.96179 25.0859 8.88253 25.2509 9.66077 25.5807C10.4445 25.9106 11.0501 26.3614 11.4776 26.9332C11.9106 27.5049 12.149 28.1536 12.1928 28.8793H8.84691C8.79758 28.4505 8.61672 28.1069 8.30433 27.8485C7.99741 27.5901 7.57267 27.4609 7.03009 27.4609C6.53684 27.4609 6.1532 27.5571 5.87917 27.7496C5.60514 27.942 5.46812 28.2004 5.46812 28.5247C5.46812 28.7007 5.52019 28.8793 5.62432 29.0608C5.73393 29.2367 5.90657 29.4236 6.14223 29.6215L9.84985 32.8212L11.3214 30.8915H14.807L11.6996 34.421L15.5305 37.7279ZM5.78874 35.4848C6.64919 35.4848 7.38907 35.2786 8.00838 34.8663L4.97487 32.2604C4.55834 32.4363 4.23773 32.6617 4.01303 32.9366C3.7938 33.2115 3.68419 33.5221 3.68419 33.8685C3.68419 34.1709 3.77188 34.4457 3.94726 34.6931C4.12264 34.9405 4.36926 35.1357 4.68714 35.2786C5.01049 35.4161 5.37769 35.4848 5.78874 35.4848Z" fill="#F3F3F3"/>
<path d="M24.9505 37.7279L21.6457 33.2747H19.8617V37.7279H16.4501V25.3581H23.7749C24.7066 25.3581 25.5259 25.523 26.2329 25.8529C26.9454 26.1827 27.4962 26.65 27.8853 27.2548C28.2799 27.854 28.4772 28.5467 28.4772 29.3329C28.4772 29.9541 28.3512 30.5204 28.0991 31.0317C27.847 31.5375 27.4852 31.9663 27.0139 32.3181C26.5481 32.67 25.9973 32.9256 25.3615 33.0851L28.9047 37.7279H24.9505ZM19.8617 27.898V30.7678H23.3063C23.8434 30.7678 24.2654 30.6413 24.5723 30.3885C24.8792 30.1356 25.0327 29.7837 25.0327 29.3329C25.0327 28.8821 24.8792 28.5302 24.5723 28.2773C24.2709 28.0245 23.8489 27.898 23.3063 27.898H19.8617Z" fill="#F3F3F3"/>
<path d="M30.4192 37.7279V25.3581H33.8308V37.7279H30.4192Z" fill="#F3F3F3"/>
<path d="M49.8234 32.549C49.7028 33.6321 49.3301 34.5859 48.7054 35.4106C48.0806 36.2297 47.2557 36.8675 46.2309 37.3238C45.206 37.7746 44.0469 38 42.7534 38C41.334 38 40.0816 37.7306 38.9965 37.1918C37.9113 36.6531 37.0701 35.8971 36.4727 34.924C35.8808 33.9455 35.5848 32.8184 35.5848 31.543C35.5848 30.2675 35.8808 29.1432 36.4727 28.1701C37.0701 27.1915 37.9113 26.4329 38.9965 25.8941C40.0816 25.3553 41.334 25.0859 42.7534 25.0859C44.0469 25.0859 45.206 25.3141 46.2309 25.7704C47.2557 26.2212 48.0806 26.8589 48.7054 27.6836C49.3301 28.5027 49.7028 29.4538 49.8234 30.5369H46.3953C46.2309 29.7562 45.8335 29.146 45.2033 28.7062C44.573 28.2663 43.7536 28.0464 42.7452 28.0464C41.9834 28.0464 41.323 28.1894 40.764 28.4753C40.2104 28.7556 39.783 29.1597 39.4815 29.6875C39.1856 30.2098 39.0376 30.8283 39.0376 31.543C39.0376 32.2577 39.1856 32.8789 39.4815 33.4067C39.783 33.929 40.2104 34.333 40.764 34.6189C41.323 34.8993 41.9834 35.0395 42.7452 35.0395C43.7646 35.0395 44.5867 34.8278 45.2115 34.4045C45.8417 33.9757 46.2363 33.3572 46.3953 32.549H49.8234Z" fill="#F3F3F3"/>
<path d="M61.1862 29.9349V25.3581H64.5979V37.7279H61.1862V32.9531H54.8808V37.7279H51.4691V25.3581H54.8808V29.9349H61.1862Z" fill="#F3F3F3"/>
<path d="M63.3472 11.7238C62.8596 12.7267 61.9585 13.4764 60.8422 13.808C59.7259 14.1397 58.4858 14.0261 57.3948 13.4923C56.3037 12.9585 55.451 12.0481 55.0242 10.9616C54.5975 9.87497 54.6317 8.70115 55.1193 7.69831L63.3472 11.7238Z" fill="#F3F3F3"/>
<path d="M65.38 11.7238C65.8676 12.7267 66.7686 13.4764 67.8849 13.808C69.0012 14.1397 70.2413 14.0261 71.3324 13.4923C72.4235 12.9585 73.2762 12.0481 73.7029 10.9616C74.1297 9.87497 74.0955 8.70115 73.6079 7.69831L65.38 11.7238Z" fill="#F3F3F3"/>
</svg>
