<svg width="181" height="181" viewBox="0 0 181 181" fill="none" xmlns="http://www.w3.org/2000/svg">
<rect x="0.5" y="0.5" width="180" height="180" rx="90" fill="#292929"/>
<rect x="0.5" y="0.5" width="180" height="180" rx="90" stroke="#F3F3F3"/>
<path d="M56.0195 78.8379C57.0521 78.8379 57.9915 79.0706 58.8379 79.5361C59.6842 80.0016 60.3613 80.6787 60.8691 81.5674C61.377 82.4561 61.6309 83.5394 61.6309 84.8174C61.6309 86.1969 61.3516 87.3691 60.793 88.334C60.2428 89.2904 59.4092 90.0182 58.292 90.5176C57.1833 91.0085 55.7826 91.2539 54.0898 91.2539C53.015 91.2539 52.0332 91.1693 51.1445 91C50.2643 90.8392 49.4772 90.5895 48.7832 90.251V86.1377C49.4349 86.4339 50.2178 86.7048 51.1318 86.9502C52.0544 87.1872 52.9007 87.3057 53.6709 87.3057C54.2887 87.3057 54.8135 87.2168 55.2451 87.0391C55.6768 86.8613 56.0026 86.599 56.2227 86.252C56.4512 85.9049 56.5654 85.4775 56.5654 84.9697C56.5654 84.2673 56.3115 83.7171 55.8037 83.3193C55.2959 82.9131 54.5257 82.71 53.4932 82.71C53.0277 82.71 52.5706 82.7565 52.1221 82.8496C51.6735 82.9427 51.2799 83.0443 50.9414 83.1543L49.1006 82.2402L49.7988 72.4395H60.3867V76.6162H54.0645L53.8359 79.0664C54.1068 79.0156 54.3818 78.9648 54.6611 78.9141C54.9489 78.8633 55.4017 78.8379 56.0195 78.8379ZM77.1445 81.7451C77.1445 83.2347 77.026 84.5677 76.7891 85.7441C76.5521 86.9121 76.1712 87.9066 75.6465 88.7275C75.1302 89.5485 74.4447 90.1748 73.5898 90.6064C72.735 91.0381 71.6855 91.2539 70.4414 91.2539C68.8926 91.2539 67.623 90.8773 66.6328 90.124C65.6426 89.3623 64.9105 88.2747 64.4365 86.8613C63.971 85.4395 63.7383 83.734 63.7383 81.7451C63.7383 79.7393 63.9499 78.0254 64.373 76.6035C64.8047 75.1732 65.5114 74.0771 66.4932 73.3154C67.4749 72.5537 68.791 72.1729 70.4414 72.1729C71.9902 72.1729 73.2555 72.5537 74.2373 73.3154C75.2275 74.0687 75.9596 75.1605 76.4336 76.5908C76.9076 78.0127 77.1445 79.7308 77.1445 81.7451ZM68.7275 81.7451C68.7275 82.9554 68.7699 83.971 68.8545 84.792C68.9476 85.613 69.1169 86.2308 69.3623 86.6455C69.6162 87.0518 69.9759 87.2549 70.4414 87.2549C70.9069 87.2549 71.2624 87.0518 71.5078 86.6455C71.7533 86.2308 71.9225 85.6172 72.0156 84.8047C72.1087 83.9837 72.1553 82.9639 72.1553 81.7451C72.1553 80.5179 72.1087 79.4938 72.0156 78.6729C71.9225 77.8519 71.7533 77.234 71.5078 76.8193C71.2624 76.3962 70.9069 76.1846 70.4414 76.1846C69.9759 76.1846 69.6162 76.3962 69.3623 76.8193C69.1169 77.234 68.9476 77.8519 68.8545 78.6729C68.7699 79.4938 68.7275 80.5179 68.7275 81.7451ZM92.3789 81.7451C92.3789 83.2347 92.2604 84.5677 92.0234 85.7441C91.7865 86.9121 91.4056 87.9066 90.8809 88.7275C90.3646 89.5485 89.679 90.1748 88.8242 90.6064C87.9694 91.0381 86.9199 91.2539 85.6758 91.2539C84.127 91.2539 82.8574 90.8773 81.8672 90.124C80.877 89.3623 80.1449 88.2747 79.6709 86.8613C79.2054 85.4395 78.9727 83.734 78.9727 81.7451C78.9727 79.7393 79.1842 78.0254 79.6074 76.6035C80.0391 75.1732 80.7458 74.0771 81.7275 73.3154C82.7093 72.5537 84.0254 72.1729 85.6758 72.1729C87.2246 72.1729 88.4899 72.5537 89.4717 73.3154C90.4619 74.0687 91.194 75.1605 91.668 76.5908C92.1419 78.0127 92.3789 79.7308 92.3789 81.7451ZM83.9619 81.7451C83.9619 82.9554 84.0042 83.971 84.0889 84.792C84.182 85.613 84.3512 86.2308 84.5967 86.6455C84.8506 87.0518 85.2103 87.2549 85.6758 87.2549C86.1413 87.2549 86.4967 87.0518 86.7422 86.6455C86.9876 86.2308 87.1569 85.6172 87.25 84.8047C87.3431 83.9837 87.3896 82.9639 87.3896 81.7451C87.3896 80.5179 87.3431 79.4938 87.25 78.6729C87.1569 77.8519 86.9876 77.234 86.7422 76.8193C86.4967 76.3962 86.1413 76.1846 85.6758 76.1846C85.2103 76.1846 84.8506 76.3962 84.5967 76.8193C84.3512 77.234 84.182 77.8519 84.0889 78.6729C84.0042 79.4938 83.9619 80.5179 83.9619 81.7451ZM111.523 91H105.849L100.339 81.5928V91H95.2988V72.4395H100.339V81.4277L105.646 72.4395H111.155L105.43 81.3008L111.523 91ZM120.728 80.1328H125.463V83.5352H120.728V88.1182H117.325V83.5352H112.59V80.1328H117.325V75.4736H120.728V80.1328Z" fill="#F3F3F3"/>
<path d="M12.3672 101.578H13.6094V108.18C13.6094 108.43 13.6068 108.703 13.6016 109C13.5964 109.292 13.5885 109.578 13.5781 109.859C13.5677 110.141 13.5547 110.396 13.5391 110.625C13.5286 110.854 13.5182 111.031 13.5078 111.156H13.5703L19.9297 101.578H21.3906V113H20.1484V106.477C20.1484 106.201 20.1536 105.909 20.1641 105.602C20.1745 105.289 20.1849 104.987 20.1953 104.695C20.2109 104.404 20.2266 104.143 20.2422 103.914C20.2578 103.68 20.2682 103.5 20.2734 103.375H20.2031L13.8359 113H12.3672V101.578ZM33.1641 113H31.8359V107.617H25.8359V113H24.5078V101.578H25.8359V106.445H31.8359V101.578H33.1641V113ZM41.1875 102.586C40.5573 102.586 39.9896 102.695 39.4844 102.914C38.9844 103.128 38.5573 103.44 38.2031 103.852C37.8542 104.258 37.5859 104.75 37.3984 105.328C37.2109 105.906 37.1172 106.557 37.1172 107.281C37.1172 108.24 37.2656 109.073 37.5625 109.781C37.8646 110.484 38.3125 111.029 38.9062 111.414C39.5052 111.799 40.2526 111.992 41.1484 111.992C41.6589 111.992 42.138 111.951 42.5859 111.867C43.0391 111.779 43.4792 111.669 43.9062 111.539V112.695C43.4896 112.852 43.0521 112.966 42.5938 113.039C42.1354 113.117 41.5911 113.156 40.9609 113.156C39.7995 113.156 38.8281 112.917 38.0469 112.438C37.2708 111.953 36.6875 111.271 36.2969 110.391C35.9115 109.51 35.7188 108.471 35.7188 107.273C35.7188 106.409 35.8385 105.62 36.0781 104.906C36.3229 104.188 36.6771 103.568 37.1406 103.047C37.6094 102.526 38.1823 102.125 38.8594 101.844C39.5417 101.557 40.3229 101.414 41.2031 101.414C41.7812 101.414 42.3385 101.471 42.875 101.586C43.4115 101.701 43.8958 101.865 44.3281 102.078L43.7969 103.203C43.4323 103.036 43.0312 102.893 42.5938 102.773C42.1615 102.648 41.6927 102.586 41.1875 102.586ZM49.8906 113H48.5547V102.75H44.9609V101.578H53.4688V102.75H49.8906V113ZM62.3594 113L60.9531 109.375H56.375L54.9766 113H53.6328L58.1016 101.531H59.2969L63.7344 113H62.3594ZM60.5547 108.195L59.2188 104.594C59.1875 104.5 59.1354 104.346 59.0625 104.133C58.9948 103.919 58.9245 103.698 58.8516 103.469C58.7786 103.24 58.7188 103.055 58.6719 102.914C58.6198 103.128 58.5625 103.341 58.5 103.555C58.4427 103.763 58.3854 103.958 58.3281 104.141C58.2708 104.318 58.2214 104.469 58.1797 104.594L56.8203 108.195H60.5547ZM73.4453 113H72.1172V102.75H68.4141C68.3411 103.333 68.263 103.943 68.1797 104.578C68.0964 105.214 68.0104 105.846 67.9219 106.477C67.8333 107.107 67.7448 107.703 67.6562 108.266C67.5677 108.828 67.4792 109.328 67.3906 109.766C67.2552 110.49 67.0859 111.107 66.8828 111.617C66.6849 112.122 66.4193 112.51 66.0859 112.781C65.7578 113.047 65.3229 113.18 64.7812 113.18C64.599 113.18 64.4167 113.161 64.2344 113.125C64.0573 113.089 63.901 113.044 63.7656 112.992V111.875C63.8854 111.927 64.0182 111.971 64.1641 112.008C64.3151 112.044 64.474 112.062 64.6406 112.062C64.9688 112.062 65.2266 111.932 65.4141 111.672C65.6068 111.406 65.7578 111.07 65.8672 110.664C65.9818 110.258 66.0807 109.841 66.1641 109.414C66.2318 109.06 66.3099 108.612 66.3984 108.07C66.487 107.529 66.5807 106.914 66.6797 106.227C66.7786 105.534 66.8802 104.794 66.9844 104.008C67.0938 103.221 67.2005 102.411 67.3047 101.578H73.4453V113ZM84.6953 113H83.3672V102.75H79.6641C79.5911 103.333 79.513 103.943 79.4297 104.578C79.3464 105.214 79.2604 105.846 79.1719 106.477C79.0833 107.107 78.9948 107.703 78.9062 108.266C78.8177 108.828 78.7292 109.328 78.6406 109.766C78.5052 110.49 78.3359 111.107 78.1328 111.617C77.9349 112.122 77.6693 112.51 77.3359 112.781C77.0078 113.047 76.5729 113.18 76.0312 113.18C75.849 113.18 75.6667 113.161 75.4844 113.125C75.3073 113.089 75.151 113.044 75.0156 112.992V111.875C75.1354 111.927 75.2682 111.971 75.4141 112.008C75.5651 112.044 75.724 112.062 75.8906 112.062C76.2188 112.062 76.4766 111.932 76.6641 111.672C76.8568 111.406 77.0078 111.07 77.1172 110.664C77.2318 110.258 77.3307 109.841 77.4141 109.414C77.4818 109.06 77.5599 108.612 77.6484 108.07C77.737 107.529 77.8307 106.914 77.9297 106.227C78.0286 105.534 78.1302 104.794 78.2344 104.008C78.3438 103.221 78.4505 102.411 78.5547 101.578H84.6953V113ZM97.7266 107.273C97.7266 108.154 97.6146 108.956 97.3906 109.68C97.1667 110.398 96.8333 111.018 96.3906 111.539C95.9531 112.055 95.4089 112.453 94.7578 112.734C94.1068 113.016 93.3516 113.156 92.4922 113.156C91.6068 113.156 90.8333 113.016 90.1719 112.734C89.5156 112.453 88.9688 112.052 88.5312 111.531C88.099 111.01 87.7734 110.388 87.5547 109.664C87.3411 108.94 87.2344 108.138 87.2344 107.258C87.2344 106.091 87.4271 105.068 87.8125 104.188C88.1979 103.307 88.7812 102.622 89.5625 102.133C90.349 101.643 91.3333 101.398 92.5156 101.398C93.6458 101.398 94.5964 101.641 95.3672 102.125C96.1432 102.609 96.7292 103.292 97.125 104.172C97.526 105.047 97.7266 106.081 97.7266 107.273ZM88.6328 107.273C88.6328 108.242 88.7708 109.081 89.0469 109.789C89.3229 110.497 89.7448 111.044 90.3125 111.43C90.8854 111.815 91.612 112.008 92.4922 112.008C93.3776 112.008 94.1016 111.815 94.6641 111.43C95.2318 111.044 95.651 110.497 95.9219 109.789C96.1927 109.081 96.3281 108.242 96.3281 107.273C96.3281 105.799 96.0182 104.648 95.3984 103.82C94.7839 102.987 93.8229 102.57 92.5156 102.57C91.6302 102.57 90.901 102.76 90.3281 103.141C89.7552 103.521 89.3281 104.062 89.0469 104.766C88.7708 105.464 88.6328 106.299 88.6328 107.273ZM100.273 101.578H103.508C104.935 101.578 106.008 101.792 106.727 102.219C107.445 102.646 107.805 103.372 107.805 104.398C107.805 104.841 107.719 105.24 107.547 105.594C107.38 105.943 107.135 106.232 106.812 106.461C106.49 106.69 106.091 106.849 105.617 106.938V107.016C106.117 107.094 106.56 107.237 106.945 107.445C107.331 107.654 107.633 107.945 107.852 108.32C108.07 108.695 108.18 109.172 108.18 109.75C108.18 110.453 108.016 111.047 107.688 111.531C107.365 112.016 106.906 112.383 106.312 112.633C105.719 112.878 105.016 113 104.203 113H100.273V101.578ZM101.602 106.477H103.789C104.784 106.477 105.471 106.312 105.852 105.984C106.237 105.656 106.43 105.177 106.43 104.547C106.43 103.896 106.201 103.427 105.742 103.141C105.289 102.854 104.565 102.711 103.57 102.711H101.602V106.477ZM101.602 107.594V111.867H103.977C104.992 111.867 105.711 111.669 106.133 111.273C106.555 110.872 106.766 110.333 106.766 109.656C106.766 109.224 106.669 108.854 106.477 108.547C106.289 108.24 105.982 108.005 105.555 107.844C105.133 107.677 104.568 107.594 103.859 107.594H101.602ZM114.75 101.578L110.5 113H109.219L113.477 101.578H114.75ZM121.516 113L117.68 102.891H117.617C117.638 103.104 117.656 103.365 117.672 103.672C117.688 103.979 117.701 104.315 117.711 104.68C117.721 105.039 117.727 105.406 117.727 105.781V113H116.492V101.578H118.461L122.078 111.078H122.133L125.805 101.578H127.758V113H126.445V105.688C126.445 105.349 126.451 105.01 126.461 104.672C126.471 104.328 126.484 104.005 126.5 103.703C126.516 103.396 126.531 103.13 126.547 102.906H126.484L122.602 113H121.516ZM137.242 113H130.883V101.578H137.242V102.75H132.211V106.445H136.953V107.602H132.211V111.828H137.242V113ZM144.656 102.586C144.026 102.586 143.458 102.695 142.953 102.914C142.453 103.128 142.026 103.44 141.672 103.852C141.323 104.258 141.055 104.75 140.867 105.328C140.68 105.906 140.586 106.557 140.586 107.281C140.586 108.24 140.734 109.073 141.031 109.781C141.333 110.484 141.781 111.029 142.375 111.414C142.974 111.799 143.721 111.992 144.617 111.992C145.128 111.992 145.607 111.951 146.055 111.867C146.508 111.779 146.948 111.669 147.375 111.539V112.695C146.958 112.852 146.521 112.966 146.062 113.039C145.604 113.117 145.06 113.156 144.43 113.156C143.268 113.156 142.297 112.917 141.516 112.438C140.74 111.953 140.156 111.271 139.766 110.391C139.38 109.51 139.188 108.471 139.188 107.273C139.188 106.409 139.307 105.62 139.547 104.906C139.792 104.188 140.146 103.568 140.609 103.047C141.078 102.526 141.651 102.125 142.328 101.844C143.01 101.557 143.792 101.414 144.672 101.414C145.25 101.414 145.807 101.471 146.344 101.586C146.88 101.701 147.365 101.865 147.797 102.078L147.266 103.203C146.901 103.036 146.5 102.893 146.062 102.773C145.63 102.648 145.161 102.586 144.656 102.586ZM153.172 108.227L150.203 113H148.648L151.844 107.984C151.427 107.854 151.036 107.669 150.672 107.43C150.312 107.185 150.021 106.849 149.797 106.422C149.578 105.995 149.469 105.448 149.469 104.781C149.469 103.74 149.823 102.945 150.531 102.398C151.245 101.852 152.305 101.578 153.711 101.578H156.844V113H155.516V108.227H153.172ZM155.516 102.711H153.758C153.128 102.711 152.594 102.784 152.156 102.93C151.724 103.076 151.396 103.305 151.172 103.617C150.948 103.93 150.836 104.339 150.836 104.844C150.836 105.568 151.076 106.125 151.555 106.516C152.034 106.901 152.766 107.094 153.75 107.094H155.516V102.711ZM169.852 111.828V115.984H168.578V113H159.977V101.578H161.305V111.812H167.172V101.578H168.484V111.828H169.852Z" fill="#CBCBCB"/>
</svg>
