<svg width="139" height="139" viewBox="0 0 139 139" fill="none" xmlns="http://www.w3.org/2000/svg">
<rect x="0.5" y="0.5" width="138" height="138" rx="69" fill="#292929"/>
<rect x="0.5" y="0.5" width="138" height="138" rx="69" stroke="#F3F3F3"/>
<path d="M18.8428 61.2949C20.2679 61.2949 21.4531 61.4704 22.3984 61.8213C23.3438 62.165 24.0527 62.6807 24.5254 63.3682C25.0052 64.0557 25.2451 64.9115 25.2451 65.9355C25.2451 66.5729 25.1377 67.153 24.9229 67.6758C24.708 68.1986 24.4001 68.6676 23.999 69.083C23.6051 69.4912 23.1325 69.8493 22.5811 70.1572L27.1572 77H22.3447L19.0146 71.2852H17.9404V77H13.6973V61.2949H18.8428ZM18.7783 64.5068H17.9404V68.0947H18.7354C19.387 68.0947 19.9206 67.9515 20.3359 67.665C20.7513 67.3786 20.959 66.8665 20.959 66.1289C20.959 65.6204 20.7871 65.223 20.4434 64.9365C20.0996 64.6501 19.5446 64.5068 18.7783 64.5068ZM37.9102 77H28.5859V61.2949H37.9102V64.7002H32.8291V67.1709H37.5342V70.5762H32.8291V73.541H37.9102V77ZM54.2275 61.2949L49.082 77H44.0869L38.9629 61.2949H43.7324L45.8701 69.2549C45.9489 69.5557 46.0384 69.9424 46.1387 70.415C46.2461 70.8805 46.3428 71.346 46.4287 71.8115C46.5218 72.277 46.5791 72.6566 46.6006 72.9502C46.6292 72.6566 46.6829 72.2806 46.7617 71.8223C46.8405 71.3639 46.9264 70.9056 47.0195 70.4473C47.1198 69.9818 47.2129 69.5986 47.2988 69.2979L49.4795 61.2949H54.2275ZM66.2051 72.2305C66.2051 73.0827 65.9902 73.8919 65.5605 74.6582C65.1309 75.4173 64.4613 76.0332 63.5518 76.5059C62.6494 76.9785 61.4821 77.2148 60.0498 77.2148C59.3337 77.2148 58.7035 77.1826 58.1592 77.1182C57.6221 77.0537 57.1208 76.9499 56.6553 76.8066C56.1898 76.6562 55.7064 76.4629 55.2051 76.2266V72.4453C56.0573 72.875 56.9167 73.2044 57.7832 73.4336C58.6497 73.6556 59.4339 73.7666 60.1357 73.7666C60.5583 73.7666 60.902 73.7165 61.167 73.6162C61.4391 73.516 61.6396 73.3799 61.7686 73.208C61.8975 73.029 61.9619 72.8249 61.9619 72.5957C61.9619 72.3236 61.8652 72.0944 61.6719 71.9082C61.4857 71.7148 61.1849 71.5143 60.7695 71.3066C60.3542 71.099 59.8063 70.8411 59.126 70.5332C58.5459 70.2611 58.0195 69.9818 57.5469 69.6953C57.0814 69.4089 56.6803 69.083 56.3438 68.7178C56.0143 68.3454 55.7601 67.9121 55.5811 67.418C55.402 66.9238 55.3125 66.3402 55.3125 65.667C55.3125 64.6572 55.5596 63.8122 56.0537 63.1318C56.555 62.4443 57.2497 61.9287 58.1377 61.585C59.0329 61.2412 60.0641 61.0693 61.2314 61.0693C62.2555 61.0693 63.1758 61.1839 63.9922 61.4131C64.8158 61.6423 65.5534 61.9036 66.2051 62.1973L64.9053 65.4736C64.2321 65.1657 63.5697 64.9222 62.918 64.7432C62.2663 64.557 61.6611 64.4639 61.1025 64.4639C60.7373 64.4639 60.4365 64.5104 60.2002 64.6035C59.971 64.6895 59.7992 64.8076 59.6846 64.958C59.5771 65.1084 59.5234 65.2803 59.5234 65.4736C59.5234 65.7171 59.6165 65.9355 59.8027 66.1289C59.9961 66.3223 60.3148 66.5335 60.7588 66.7627C61.21 66.9847 61.8223 67.2747 62.5957 67.6328C63.362 67.9766 64.0137 68.349 64.5508 68.75C65.0879 69.1439 65.4961 69.6201 65.7754 70.1787C66.0618 70.7301 66.2051 71.4141 66.2051 72.2305ZM82.0928 77H77.8281V70.5977H72.8975V77H68.6328V61.2949H72.8975V67.1172H77.8281V61.2949H82.0928V77ZM95.1338 77L94.3604 74.0566H89.2578L88.4629 77H83.8008L88.9248 61.2305H94.5859L99.7744 77H95.1338ZM93.4795 70.5762L92.8027 67.998C92.7311 67.7188 92.6273 67.3213 92.4912 66.8057C92.3551 66.2829 92.2191 65.7458 92.083 65.1943C91.9541 64.6357 91.8538 64.1774 91.7822 63.8193C91.7178 64.1774 91.6247 64.6214 91.5029 65.1514C91.3883 65.6742 91.2666 66.1934 91.1377 66.709C91.016 67.2246 90.9085 67.6543 90.8154 67.998L90.1387 70.5762H93.4795ZM106.628 61.2949C108.053 61.2949 109.238 61.4704 110.184 61.8213C111.129 62.165 111.838 62.6807 112.311 63.3682C112.79 64.0557 113.03 64.9115 113.03 65.9355C113.03 66.5729 112.923 67.153 112.708 67.6758C112.493 68.1986 112.185 68.6676 111.784 69.083C111.39 69.4912 110.918 69.8493 110.366 70.1572L114.942 77H110.13L106.8 71.2852H105.726V77H101.482V61.2949H106.628ZM106.563 64.5068H105.726V68.0947H106.521C107.172 68.0947 107.706 67.9515 108.121 67.665C108.536 67.3786 108.744 66.8665 108.744 66.1289C108.744 65.6204 108.572 65.223 108.229 64.9365C107.885 64.6501 107.33 64.5068 106.563 64.5068ZM125.695 77H116.371V61.2949H125.695V64.7002H120.614V67.1709H125.319V70.5762H120.614V73.541H125.695V77Z" fill="#F3F3F3"/>
</svg>
