<svg width="94" height="94" viewBox="0 0 94 94" fill="none" xmlns="http://www.w3.org/2000/svg">
<rect x="0.5" y="0.5" width="93" height="93" rx="46.5" fill="#292929"/>
<rect x="0.5" y="0.5" width="93" height="93" rx="46.5" stroke="white"/>
<path d="M35.2305 51.9297C35.2305 53.0143 34.957 54.0443 34.4102 55.0195C33.8633 55.9857 33.0111 56.7695 31.8535 57.3711C30.7051 57.9727 29.2194 58.2734 27.3965 58.2734C26.485 58.2734 25.6829 58.2324 24.9902 58.1504C24.3066 58.0684 23.6686 57.9362 23.0762 57.7539C22.4837 57.5625 21.8685 57.3164 21.2305 57.0156V52.2031C22.3151 52.75 23.4089 53.1693 24.5117 53.4609C25.6146 53.7435 26.6126 53.8848 27.5059 53.8848C28.0436 53.8848 28.4811 53.821 28.8184 53.6934C29.1647 53.5658 29.4199 53.3926 29.584 53.1738C29.748 52.946 29.8301 52.6862 29.8301 52.3945C29.8301 52.0482 29.707 51.7565 29.4609 51.5195C29.224 51.2734 28.8411 51.0182 28.3125 50.7539C27.7839 50.4896 27.0866 50.1615 26.2207 49.7695C25.4824 49.4232 24.8125 49.0677 24.2109 48.7031C23.6185 48.3385 23.1081 47.9238 22.6797 47.459C22.2604 46.985 21.9368 46.4336 21.709 45.8047C21.4811 45.1758 21.3672 44.4329 21.3672 43.5762C21.3672 42.291 21.6816 41.2155 22.3105 40.3496C22.9486 39.4746 23.8327 38.8184 24.9629 38.3809C26.1022 37.9434 27.4147 37.7246 28.9004 37.7246C30.2038 37.7246 31.375 37.8704 32.4141 38.1621C33.4622 38.4538 34.401 38.7865 35.2305 39.1602L33.5762 43.3301C32.7194 42.9382 31.8763 42.6283 31.0469 42.4004C30.2174 42.1634 29.4473 42.0449 28.7363 42.0449C28.2715 42.0449 27.8887 42.1042 27.5879 42.2227C27.2962 42.332 27.0775 42.4824 26.9316 42.6738C26.7949 42.8652 26.7266 43.084 26.7266 43.3301C26.7266 43.64 26.8451 43.918 27.082 44.1641C27.3281 44.4102 27.7337 44.679 28.2988 44.9707C28.873 45.2533 29.6523 45.6224 30.6367 46.0781C31.612 46.5156 32.4414 46.9896 33.125 47.5C33.8086 48.0013 34.3281 48.6074 34.6836 49.3184C35.0482 50.0202 35.2305 50.8906 35.2305 51.9297ZM50.1875 58H38.3203V38.0117H50.1875V42.3457H43.7207V45.4902H49.709V49.8242H43.7207V53.5977H50.1875V58ZM72.3906 47.9785C72.3906 49.5189 72.2038 50.9225 71.8301 52.1895C71.4655 53.4473 70.8913 54.5319 70.1074 55.4434C69.3236 56.3548 68.3164 57.0566 67.0859 57.5488C65.8555 58.0319 64.3835 58.2734 62.6699 58.2734C60.9928 58.2734 59.5391 58.0319 58.3086 57.5488C57.0872 57.0566 56.0801 56.3594 55.2871 55.457C54.4941 54.5456 53.9062 53.4564 53.5234 52.1895C53.1406 50.9225 52.9492 49.5098 52.9492 47.9512C52.9492 45.873 53.291 44.0684 53.9746 42.5371C54.6673 40.9967 55.7337 39.8073 57.1738 38.9688C58.6139 38.1211 60.4551 37.6973 62.6973 37.6973C64.9759 37.6973 66.8262 38.1211 68.248 38.9688C69.679 39.8164 70.7272 41.0104 71.3926 42.5508C72.0579 44.0911 72.3906 45.9004 72.3906 47.9785ZM58.6367 47.9785C58.6367 49.1816 58.7734 50.2161 59.0469 51.082C59.3203 51.9479 59.7533 52.6133 60.3457 53.0781C60.9382 53.543 61.7129 53.7754 62.6699 53.7754C63.6634 53.7754 64.4518 53.543 65.0352 53.0781C65.6276 52.6133 66.0514 51.9479 66.3066 51.082C66.571 50.2161 66.7031 49.1816 66.7031 47.9785C66.7031 46.1738 66.4023 44.7474 65.8008 43.6992C65.1992 42.651 64.1647 42.127 62.6973 42.127C61.722 42.127 60.9336 42.3639 60.332 42.8379C59.7396 43.3118 59.3066 43.9863 59.0332 44.8613C58.7689 45.7363 58.6367 46.7754 58.6367 47.9785Z" fill="white"/>
</svg>
