<svg width="28" height="28" viewBox="0 0 28 28" fill="none" xmlns="http://www.w3.org/2000/svg">
<path d="M25.6138 0.247213C25.6138 0.247213 28.2038 -0.964782 27.9871 1.9784C27.9158 3.1904 27.2685 7.43278 26.7644 12.0208L25.0378 25.6127C25.0378 25.6127 24.8938 27.6039 23.5984 27.9503C22.3037 28.2959 20.3611 26.7383 20.0011 26.3919C19.713 26.1319 14.605 22.2359 12.8063 20.3319C12.3023 19.8119 11.7263 18.7735 12.8783 17.5615L20.4331 8.90398C21.2964 7.86398 22.1597 5.43999 18.5624 8.38398L8.48894 16.6079C8.48894 16.6079 7.3376 17.4743 5.17958 16.6951L0.502201 14.9632C0.502201 14.9632 -1.22448 13.6648 1.72555 12.3664C8.92095 8.29758 17.771 4.1424 25.6131 0.246413" fill="#C9FF33"/>
</svg>
