<svg width="94" height="94" viewBox="0 0 94 94" fill="none" xmlns="http://www.w3.org/2000/svg">
<rect x="0.5" y="0.5" width="93" height="93" rx="46.5" fill="#292929"/>
<rect x="0.5" y="0.5" width="93" height="93" rx="46.5" stroke="#F3F3F3"/>
<path d="M29.7275 50.3184H36.6367C36.7187 50.3184 36.7631 50.332 36.7803 50.3389C36.7957 50.3451 36.7995 50.3502 36.8008 50.3516C36.8025 50.3534 36.8166 50.3676 36.8311 50.4072C36.846 50.4483 36.8633 50.5225 36.8633 50.6367V65.1816C36.8633 65.296 36.846 65.3701 36.8311 65.4111C36.8166 65.4508 36.8025 65.4649 36.8008 65.4668C36.7994 65.4682 36.7954 65.4724 36.7803 65.4785C36.7633 65.4854 36.7191 65.5 36.6367 65.5H29.7275C29.6448 65.5 29.5999 65.4854 29.583 65.4785C29.5676 65.4722 29.5637 65.4681 29.5625 65.4668C29.5606 65.4648 29.5476 65.4505 29.5332 65.4111C29.5183 65.3702 29.5 65.2962 29.5 65.1816V50.6367C29.5 50.5223 29.5183 50.4482 29.5332 50.4072C29.5474 50.3684 29.5603 50.3539 29.5625 50.3516C29.5637 50.3503 29.5674 50.3452 29.583 50.3389C29.5999 50.332 29.6449 50.3184 29.7275 50.3184ZM43.5459 28.5H50.4541C50.5369 28.5 50.5817 28.5146 50.5986 28.5215C50.614 28.5277 50.6179 28.5319 50.6191 28.5332C50.6209 28.5351 50.6339 28.5492 50.6484 28.5889C50.6634 28.6298 50.6816 28.7038 50.6816 28.8184V65.1816C50.6816 65.2962 50.6634 65.3702 50.6484 65.4111C50.6339 65.4508 50.6209 65.4649 50.6191 65.4668C50.6179 65.4681 50.614 65.4723 50.5986 65.4785C50.5817 65.4854 50.5369 65.5 50.4541 65.5H43.5459C43.4631 65.5 43.4183 65.4854 43.4014 65.4785C43.386 65.4723 43.3821 65.4681 43.3809 65.4668C43.3791 65.4649 43.3661 65.4508 43.3516 65.4111C43.3366 65.3702 43.3184 65.2962 43.3184 65.1816V28.8184C43.3184 28.7038 43.3366 28.6298 43.3516 28.5889C43.3661 28.5492 43.3791 28.5351 43.3809 28.5332C43.3821 28.5319 43.386 28.5277 43.4014 28.5215C43.4183 28.5146 43.4631 28.5 43.5459 28.5ZM57.3633 43.0459H64.2725C64.3552 43.0459 64.4001 43.0596 64.417 43.0664C64.4317 43.0724 64.4361 43.0766 64.4375 43.0781C64.4393 43.08 64.4523 43.0944 64.4668 43.1338C64.4817 43.1747 64.5 43.2488 64.5 43.3633V65.1816C64.5 65.2962 64.4817 65.3702 64.4668 65.4111C64.4524 65.4505 64.4394 65.4648 64.4375 65.4668C64.4363 65.4681 64.4324 65.4722 64.417 65.4785C64.4001 65.4854 64.3552 65.5 64.2725 65.5H57.3633C57.2809 65.5 57.2367 65.4854 57.2197 65.4785C57.2046 65.4724 57.2006 65.4682 57.1992 65.4668C57.1975 65.4649 57.1834 65.4508 57.1689 65.4111C57.154 65.3701 57.1367 65.296 57.1367 65.1816V43.3633C57.1368 43.2488 57.154 43.1747 57.1689 43.1338C57.1834 43.0942 57.1975 43.08 57.1992 43.0781C57.2008 43.0764 57.2055 43.0722 57.2197 43.0664C57.2368 43.0595 57.2812 43.0459 57.3633 43.0459Z" stroke="white" stroke-width="3"/>
</svg>
