<svg width="117" height="117" viewBox="0 0 117 117" fill="none" xmlns="http://www.w3.org/2000/svg">
<rect x="0.5" y="0.5" width="116" height="116" rx="58" fill="#292929"/>
<rect x="0.5" y="0.5" width="116" height="116" rx="58" stroke="#F3F3F3"/>
<path d="M40.8643 53.5246L39.9953 54.7473L40.8643 53.5246ZM49.8544 48.5546L51.2695 49.0521L51.2695 49.052L49.8544 48.5546ZM59.1691 40.961L57.6773 40.8046L57.6772 40.8052L59.1691 40.961ZM75.3865 38.43C76.0106 37.8851 76.0748 36.9375 75.53 36.3135C74.9851 35.6894 74.0375 35.6252 73.4135 36.17L74.4 37.3L75.3865 38.43ZM66.4672 49.274L67.2407 47.9888L67.2403 47.9886L66.4672 49.274ZM65.1777 82.9009C64.7545 83.6131 64.9888 84.5335 65.701 84.9566C66.4132 85.3798 67.3336 85.1454 67.7568 84.4332L66.4672 83.667L65.1777 82.9009ZM34.1837 68.954C33.4254 69.2876 33.0812 70.1728 33.4148 70.9311C33.7485 71.6893 34.6336 72.0336 35.3919 71.6999L34.7878 70.327L34.1837 68.954ZM37.512 69.1689L36.9503 67.778L36.9425 67.7812L37.512 69.1689ZM48.8593 67.7127L49.465 66.3405L49.4641 66.34L48.8593 67.7127ZM52.9111 74.9578L53.9971 73.9231L53.9961 73.922L52.9111 74.9578ZM54.5347 84.1479C54.1446 84.8787 54.4208 85.7874 55.1516 86.1775C55.8824 86.5676 56.7911 86.2914 57.1812 85.5606L55.858 84.8543L54.5347 84.1479ZM58.5 85V86.5C73.9644 86.5 86.5 73.9644 86.5 58.5H85H83.5C83.5 72.3075 72.3075 83.5 58.5 83.5V85ZM85 58.5H86.5C86.5 43.0356 73.9644 30.5 58.5 30.5V32V33.5C72.3075 33.5 83.5 44.6925 83.5 58.5H85ZM58.5 32V30.5C43.0356 30.5 30.5 43.0356 30.5 58.5H32H33.5C33.5 44.6925 44.6925 33.5 58.5 33.5V32ZM32 58.5H30.5C30.5 73.9644 43.0356 86.5 58.5 86.5V85V83.5C44.6925 83.5 33.5 72.3075 33.5 58.5H32ZM32 54.313L32.6403 55.6695C36.5706 53.8143 38.8054 53.9017 39.9953 54.7473L40.8643 53.5246L41.7332 52.3019C39.0948 50.4269 35.4201 51.0399 31.3597 52.9565L32 54.313ZM40.8643 53.5246L39.9953 54.7473C40.3922 55.0294 40.8114 55.6284 41.3608 56.6517C41.8434 57.5505 42.4421 58.8138 43.1371 59.8235C43.8504 60.8598 44.8634 61.9452 46.3807 62.33C47.9191 62.7201 49.5901 62.2966 51.4066 61.1912L50.6269 59.9098L49.8471 58.6284C48.3975 59.5105 47.574 59.5376 47.1181 59.422C46.6412 59.3011 46.1602 58.9243 45.6083 58.1225C45.0381 57.2942 44.6003 56.3433 44.0039 55.2326C43.4744 54.2463 42.7719 53.0401 41.7332 52.3019L40.8643 53.5246ZM50.6269 59.9098L51.4066 61.1912C53.1161 60.1509 54.3238 58.9647 54.4706 57.4093C54.6094 55.9387 53.7024 54.7346 53.1146 53.9796C51.6727 52.1273 50.5824 51.0061 51.2695 49.0521L49.8544 48.5546L48.4393 48.057C47.1017 51.8614 49.6638 54.4304 50.7473 55.8224C51.4223 56.6894 51.4963 56.996 51.4839 57.1274C51.4795 57.1741 51.4037 57.6812 49.8471 58.6284L50.6269 59.9098ZM49.8544 48.5546L51.2695 49.052C51.6533 47.9602 52.1979 47.4578 52.7774 47.1487C53.453 46.7882 54.2391 46.6454 55.312 46.4356C56.2681 46.2486 57.5591 45.9923 58.6187 45.2003C59.7815 44.3311 60.4648 42.9963 60.661 41.1167L59.1691 40.961L57.6772 40.8052C57.5442 42.0799 57.1516 42.5514 56.8225 42.7974C56.3902 43.1206 55.7733 43.2885 54.7361 43.4914C53.8157 43.6714 52.523 43.8842 51.3653 44.5018C50.1113 45.1708 49.0678 46.269 48.4393 48.0571L49.8544 48.5546ZM59.1691 40.961L60.661 41.1173C60.8057 39.7365 60.5021 38.4422 59.6513 37.3642C58.8292 36.3227 57.6099 35.6273 56.1838 35.1711C53.3658 34.2695 49.2287 34.1421 43.9371 34.6393L44.0774 36.1327L44.2177 37.6261C49.428 37.1366 53.0571 37.3205 55.2697 38.0284C56.3589 38.3769 56.971 38.8107 57.2964 39.2229C57.593 39.5987 57.753 40.0826 57.6773 40.8046L59.1691 40.961ZM74.4 37.3L73.4135 36.17C69.6123 39.4887 66.9281 42.2489 65.488 44.4226C64.7798 45.4916 64.2541 46.5907 64.1825 47.6526C64.1447 48.2126 64.232 48.7894 64.5105 49.3268C64.7894 49.865 65.2113 50.2691 65.6942 50.5595L66.4672 49.274L67.2403 47.9886C67.1525 47.9358 67.1577 47.9149 67.174 47.9462C67.1898 47.9768 67.1683 47.9649 67.1757 47.8544C67.1945 47.5753 67.3751 47.0061 67.989 46.0794C69.1932 44.2617 71.6166 41.7213 75.3865 38.43L74.4 37.3ZM66.4672 49.274L65.6938 50.5593C66.737 51.187 67.7095 51.48 68.6709 51.5236C69.6019 51.5658 70.4253 51.3668 71.1107 51.1776C72.4938 50.7958 73.5476 50.4071 75.2267 50.7446L75.5223 49.274L75.8179 47.8034C73.3179 47.3009 71.5561 47.9424 70.3124 48.2857C69.6844 48.4591 69.2416 48.5464 68.8067 48.5267C68.4023 48.5083 67.9094 48.3912 67.2407 47.9888L66.4672 49.274ZM75.5223 49.274L75.2267 50.7446C75.9151 50.883 76.3072 51.1915 76.5459 51.5224C76.8026 51.8781 76.9442 52.3507 76.9513 52.8622C76.9586 53.3832 76.8244 53.8335 76.6605 54.1049C76.488 54.3905 76.4317 54.2785 76.5982 54.2785V55.7785V57.2785C77.8631 57.2785 78.7439 56.4584 79.2286 55.6557C79.7219 54.8387 79.965 53.8204 79.951 52.8204C79.937 51.8107 79.6589 50.7097 78.9788 49.7671C78.2807 48.7996 77.219 48.0851 75.8179 47.8034L75.5223 49.274ZM76.5982 55.7785V54.2785C75.7534 54.2785 72.0209 53.9114 68.8286 54.4013C67.2079 54.65 65.4692 55.1438 64.1493 56.1759C62.732 57.2841 61.9101 58.9305 62.0975 61.1002L63.592 60.9711L65.0864 60.842C64.987 59.6906 65.3728 59.0274 65.9972 58.5392C66.7188 57.975 67.8557 57.5858 69.2837 57.3666C72.1887 56.9207 75.2461 57.2785 76.5982 57.2785V55.7785ZM63.592 60.9711L62.0975 61.1002C62.4364 65.0235 64.6726 67.264 66.5367 68.8738C67.519 69.722 68.2533 70.285 68.822 70.9123C69.3438 71.4879 69.512 71.9002 69.512 72.3078H71.012H72.512C72.512 70.8598 71.8244 69.7575 71.0446 68.8973C70.3117 68.089 69.2986 67.2951 68.4975 66.6033C66.7951 65.1332 65.3213 63.561 65.0864 60.842L63.592 60.9711ZM71.012 72.3078H69.512C69.512 73.2694 69.2097 74.6294 68.4831 76.4454C67.7643 78.242 66.669 80.3908 65.1777 82.9009L66.4672 83.667L67.7568 84.4332C69.2953 81.8438 70.4723 79.5496 71.2685 77.5598C72.0568 75.5895 72.512 73.8196 72.512 72.3078H71.012ZM34.7878 70.327L35.3919 71.6999C36.2836 71.3076 37.1802 70.9264 38.0815 70.5566L37.512 69.1689L36.9425 67.7812C36.0181 68.1606 35.0984 68.5515 34.1837 68.954L34.7878 70.327ZM37.512 69.1689L38.0737 70.5598C43.1313 68.5174 46.3923 68.2649 48.2545 69.0854L48.8593 67.7127L49.4641 66.34C46.3902 64.9858 42.0863 65.704 36.9503 67.778L37.512 69.1689ZM48.8593 67.7127L48.2536 69.085C49.1296 69.4716 49.6218 69.9173 49.9265 70.3369C50.2385 70.7666 50.4185 71.2578 50.5412 71.833C50.6032 72.1239 50.648 72.4225 50.692 72.746C50.7336 73.051 50.7789 73.4149 50.8366 73.7482C50.9466 74.3839 51.1536 75.2891 51.8262 75.9936L52.9111 74.9578L53.9961 73.922C53.985 73.9104 53.8889 73.7925 53.7926 73.2364C53.7471 72.9736 53.7134 72.6993 53.6646 72.3412C53.6184 72.0017 53.5615 71.6121 53.4752 71.2072C53.301 70.3908 52.997 69.4597 52.354 68.5742C51.7037 67.6786 50.77 66.9164 49.465 66.3405L48.8593 67.7127ZM52.9111 74.9578L51.8252 75.9926C52.3936 76.5892 53.1081 76.9286 53.6759 77.156C53.9681 77.273 54.2673 77.3772 54.5266 77.4681C54.7978 77.5631 55.0308 77.6454 55.2478 77.7335C55.6979 77.9162 55.9215 78.0645 56.0368 78.1883C56.1034 78.2599 56.1891 78.3723 56.1891 78.6983H57.6891H59.1891C59.1891 77.6622 58.8481 76.8051 58.2321 76.1437C57.6648 75.5346 56.9498 75.1866 56.376 74.9537C56.0811 74.834 55.7808 74.7287 55.5188 74.6369C55.2447 74.5409 55.0107 74.4589 54.7911 74.3709C54.335 74.1883 54.111 74.0427 53.9971 73.9231L52.9111 74.9578ZM57.6891 78.6983H56.1891C56.1891 80.1863 55.6858 81.9913 54.5347 84.1479L55.858 84.8543L57.1812 85.5606C58.4716 83.1433 59.1891 80.8444 59.1891 78.6983H57.6891Z" fill="white"/>
</svg>
